<mxfile host="app.diagrams.net" modified="2024-05-07T17:18:18.493Z" agent="Mozilla/5.0 (Windows NT 10.0; Win64; x64) AppleWebKit/537.36 (KHTML, like Gecko) Chrome/123.0.0.0 Safari/537.36 OPR/109.0.0.0" etag="xrPp5wYHl4IFirPhPBS9" version="24.3.1" type="device">
  <diagram name="Página-1" id="Jb3ldbT58tAPYKw5IJ2G">
    <mxGraphModel dx="-2587" dy="3567" grid="1" gridSize="10" guides="1" tooltips="1" connect="1" arrows="1" fold="1" page="0" pageScale="1" pageWidth="827" pageHeight="1169" background="none" math="0" shadow="0">
      <root>
        <mxCell id="0" />
        <mxCell id="1" parent="0" />
        <mxCell id="ty1z_cMRj-_MPsmsl8Fz-1" value="" style="edgeStyle=orthogonalEdgeStyle;rounded=0;orthogonalLoop=1;jettySize=auto;html=1;" parent="1" source="U04XYoF6D5OVltBC0bDB-1" target="mepEjF3Km3tL2axybcSp-865" edge="1">
          <mxGeometry relative="1" as="geometry" />
        </mxCell>
        <mxCell id="U04XYoF6D5OVltBC0bDB-1" value="&lt;font style=&quot;font-size: 24px;&quot;&gt;Início&lt;/font&gt;" style="ellipse;whiteSpace=wrap;html=1;aspect=fixed;rounded=0;labelBackgroundColor=none;fontStyle=1" parent="1" vertex="1">
          <mxGeometry x="5153" y="-1925.32" width="108" height="108" as="geometry" />
        </mxCell>
        <mxCell id="mepEjF3Km3tL2axybcSp-292" value="&quot;O que deseja fazer?&quot;&lt;br&gt;&quot;Digite 1 para registrar um novo usuário&quot;&lt;div&gt;&quot;Digite 2 para registrar mais de um novo usuário&quot;&lt;/div&gt;&lt;div&gt;&quot;Digite 3 para buscar um usuário por sua id&quot;&lt;/div&gt;&lt;div&gt;&quot;Digite 4 para realizar uma transferência&quot;&lt;/div&gt;&lt;div&gt;&quot;Digite 5 para remover um usuário por sua id&quot;&lt;/div&gt;&lt;div&gt;&quot;Digite 6 para sair&quot;&lt;/div&gt;" style="shape=document;whiteSpace=wrap;html=1;boundedLbl=1;rounded=0;labelBackgroundColor=none;fontStyle=1" parent="1" vertex="1">
          <mxGeometry x="6038.5" y="-1515.32" width="286" height="190.66" as="geometry" />
        </mxCell>
        <mxCell id="mepEjF3Km3tL2axybcSp-293" value="" style="endArrow=classic;html=1;rounded=0;entryX=0;entryY=0.5;entryDx=0;entryDy=0;labelBackgroundColor=none;fontColor=default;fontStyle=1" parent="1" target="mepEjF3Km3tL2axybcSp-587" edge="1">
          <mxGeometry width="50" height="50" relative="1" as="geometry">
            <mxPoint x="6327" y="-1409.6399999999999" as="sourcePoint" />
            <mxPoint x="6228.5" y="-1410.55" as="targetPoint" />
          </mxGeometry>
        </mxCell>
        <mxCell id="mepEjF3Km3tL2axybcSp-295" value="inicio&lt;div&gt;menu()&lt;/div&gt;" style="ellipse;whiteSpace=wrap;html=1;rounded=0;labelBackgroundColor=none;fontStyle=1" parent="1" vertex="1">
          <mxGeometry x="5870.25" y="-1459.99" width="120" height="80" as="geometry" />
        </mxCell>
        <mxCell id="mepEjF3Km3tL2axybcSp-299" value="&lt;span&gt;Início&lt;/span&gt;&lt;div&gt;&lt;span&gt;new_user()&lt;/span&gt;&lt;/div&gt;" style="ellipse;whiteSpace=wrap;html=1;rounded=0;labelBackgroundColor=none;fontStyle=1" parent="1" vertex="1">
          <mxGeometry x="6120" y="-591.3200000000002" width="120" height="80" as="geometry" />
        </mxCell>
        <mxCell id="Tq2M9Iyucr7lJhH_iC7z-139" value="" style="edgeStyle=orthogonalEdgeStyle;rounded=0;orthogonalLoop=1;jettySize=auto;html=1;" parent="1" source="mepEjF3Km3tL2axybcSp-302" target="mepEjF3Km3tL2axybcSp-303" edge="1">
          <mxGeometry relative="1" as="geometry" />
        </mxCell>
        <mxCell id="mepEjF3Km3tL2axybcSp-302" value="&lt;span&gt;&quot;Digite o seu nome&quot;&lt;/span&gt;" style="shape=document;whiteSpace=wrap;html=1;boundedLbl=1;rounded=0;labelBackgroundColor=none;fontStyle=1" parent="1" vertex="1">
          <mxGeometry x="6289.08" y="-582.6400000000001" width="88.5" height="61.32" as="geometry" />
        </mxCell>
        <mxCell id="mepEjF3Km3tL2axybcSp-303" value="&lt;span&gt;NEW_NAME&lt;/span&gt;" style="shape=manualInput;whiteSpace=wrap;html=1;rounded=0;labelBackgroundColor=none;fontStyle=1" parent="1" vertex="1">
          <mxGeometry x="6417" y="-583.89" width="80" height="63.82" as="geometry" />
        </mxCell>
        <mxCell id="Tq2M9Iyucr7lJhH_iC7z-140" value="" style="edgeStyle=orthogonalEdgeStyle;rounded=0;orthogonalLoop=1;jettySize=auto;html=1;" parent="1" source="mepEjF3Km3tL2axybcSp-305" target="mepEjF3Km3tL2axybcSp-307" edge="1">
          <mxGeometry relative="1" as="geometry" />
        </mxCell>
        <mxCell id="mepEjF3Km3tL2axybcSp-305" value="&lt;span&gt;&quot;Digite a sua idade&quot;&lt;/span&gt;" style="shape=document;whiteSpace=wrap;html=1;boundedLbl=1;rounded=0;labelBackgroundColor=none;fontStyle=1" parent="1" vertex="1">
          <mxGeometry x="6685.33" y="-577.8200000000002" width="120" height="80" as="geometry" />
        </mxCell>
        <mxCell id="mepEjF3Km3tL2axybcSp-306" value="" style="endArrow=classic;html=1;rounded=0;entryX=0;entryY=0.5;entryDx=0;entryDy=0;exitX=1;exitY=0.5;exitDx=0;exitDy=0;labelBackgroundColor=none;fontColor=default;fontStyle=1" parent="1" source="mepEjF3Km3tL2axybcSp-303" target="mepEjF3Km3tL2axybcSp-322" edge="1">
          <mxGeometry width="50" height="50" relative="1" as="geometry">
            <mxPoint x="6423.33" y="-613.3200000000002" as="sourcePoint" />
            <mxPoint x="6583.33" y="-543.3200000000002" as="targetPoint" />
          </mxGeometry>
        </mxCell>
        <mxCell id="Tq2M9Iyucr7lJhH_iC7z-141" style="edgeStyle=orthogonalEdgeStyle;rounded=0;orthogonalLoop=1;jettySize=auto;html=1;entryX=0;entryY=0.5;entryDx=0;entryDy=0;" parent="1" source="mepEjF3Km3tL2axybcSp-307" target="mepEjF3Km3tL2axybcSp-328" edge="1">
          <mxGeometry relative="1" as="geometry" />
        </mxCell>
        <mxCell id="mepEjF3Km3tL2axybcSp-307" value="&lt;span&gt;NEW_AGE&lt;/span&gt;" style="shape=manualInput;whiteSpace=wrap;html=1;rounded=0;labelBackgroundColor=none;fontStyle=1" parent="1" vertex="1">
          <mxGeometry x="6857.33" y="-566.73" width="80" height="57.82" as="geometry" />
        </mxCell>
        <mxCell id="mepEjF3Km3tL2axybcSp-309" value="&quot;Digite seu saldo&quot;" style="shape=document;whiteSpace=wrap;html=1;boundedLbl=1;rounded=0;labelBackgroundColor=none;fontStyle=1" parent="1" vertex="1">
          <mxGeometry x="7167.33" y="-562.41" width="120" height="41.09" as="geometry" />
        </mxCell>
        <mxCell id="mepEjF3Km3tL2axybcSp-311" value="NEW_BALANCE" style="shape=manualInput;whiteSpace=wrap;html=1;rounded=0;labelBackgroundColor=none;fontStyle=1" parent="1" vertex="1">
          <mxGeometry x="7321.83" y="-595.3199999999999" width="101" height="80" as="geometry" />
        </mxCell>
        <mxCell id="mepEjF3Km3tL2axybcSp-312" value="" style="endArrow=classic;html=1;rounded=0;exitX=1;exitY=0.5;exitDx=0;exitDy=0;entryX=0.018;entryY=0.673;entryDx=0;entryDy=0;entryPerimeter=0;labelBackgroundColor=none;fontColor=default;fontStyle=1" parent="1" source="mepEjF3Km3tL2axybcSp-309" target="mepEjF3Km3tL2axybcSp-311" edge="1">
          <mxGeometry width="50" height="50" relative="1" as="geometry">
            <mxPoint x="7333.33" y="-620.3200000000002" as="sourcePoint" />
            <mxPoint x="7383.33" y="-670.3200000000002" as="targetPoint" />
          </mxGeometry>
        </mxCell>
        <mxCell id="Tq2M9Iyucr7lJhH_iC7z-158" value="" style="edgeStyle=orthogonalEdgeStyle;rounded=0;orthogonalLoop=1;jettySize=auto;html=1;" parent="1" source="mepEjF3Km3tL2axybcSp-313" target="mepEjF3Km3tL2axybcSp-384" edge="1">
          <mxGeometry relative="1" as="geometry" />
        </mxCell>
        <mxCell id="mepEjF3Km3tL2axybcSp-313" value="&quot;Usuário cadastrado com sucesso!&quot;" style="shape=document;whiteSpace=wrap;html=1;boundedLbl=1;rounded=0;labelBackgroundColor=none;fontStyle=1" parent="1" vertex="1">
          <mxGeometry x="7711.83" y="-692.6400000000002" width="120" height="80" as="geometry" />
        </mxCell>
        <mxCell id="mepEjF3Km3tL2axybcSp-314" value="" style="endArrow=classic;html=1;rounded=0;exitX=1;exitY=0.5;exitDx=0;exitDy=0;labelBackgroundColor=none;fontColor=default;fontStyle=1" parent="1" source="mepEjF3Km3tL2axybcSp-311" target="mepEjF3Km3tL2axybcSp-334" edge="1">
          <mxGeometry width="50" height="50" relative="1" as="geometry">
            <mxPoint x="7553.33" y="-620.3200000000002" as="sourcePoint" />
            <mxPoint x="7553.33" y="-453.3200000000001" as="targetPoint" />
          </mxGeometry>
        </mxCell>
        <mxCell id="Tq2M9Iyucr7lJhH_iC7z-156" value="" style="edgeStyle=orthogonalEdgeStyle;rounded=0;orthogonalLoop=1;jettySize=auto;html=1;" parent="1" source="mepEjF3Km3tL2axybcSp-317" target="mepEjF3Km3tL2axybcSp-313" edge="1">
          <mxGeometry relative="1" as="geometry" />
        </mxCell>
        <mxCell id="mepEjF3Km3tL2axybcSp-317" value="Salvar (&quot;\n%s,%d,%d&quot;, NEW_NAME, NEW_AGE, NEW_BALANCE) em UserData.txt" style="rounded=0;whiteSpace=wrap;html=1;labelBackgroundColor=none;fontStyle=1" parent="1" vertex="1">
          <mxGeometry x="7691.83" y="-585.48" width="160" height="60.32" as="geometry" />
        </mxCell>
        <mxCell id="mepEjF3Km3tL2axybcSp-321" value="" style="endArrow=classic;html=1;rounded=0;exitX=1;exitY=0.5;exitDx=0;exitDy=0;entryX=0;entryY=0.5;entryDx=0;entryDy=0;labelBackgroundColor=none;fontColor=default;fontStyle=1" parent="1" source="mepEjF3Km3tL2axybcSp-299" target="mepEjF3Km3tL2axybcSp-302" edge="1">
          <mxGeometry width="50" height="50" relative="1" as="geometry">
            <mxPoint x="6223.33" y="-551.3200000000002" as="sourcePoint" />
            <mxPoint x="6513.33" y="-543.3200000000002" as="targetPoint" />
          </mxGeometry>
        </mxCell>
        <mxCell id="mepEjF3Km3tL2axybcSp-322" value="&lt;span&gt;NEW_NAME &amp;lt;=100&lt;/span&gt;" style="rhombus;whiteSpace=wrap;html=1;rounded=0;labelBackgroundColor=none;fontStyle=1" parent="1" vertex="1">
          <mxGeometry x="6531.83" y="-604.8200000000002" width="107" height="107" as="geometry" />
        </mxCell>
        <mxCell id="mepEjF3Km3tL2axybcSp-323" value="" style="endArrow=none;startArrow=classic;html=1;rounded=0;entryX=1;entryY=0.5;entryDx=0;entryDy=0;exitX=0.019;exitY=0.346;exitDx=0;exitDy=0;exitPerimeter=0;startFill=1;endFill=0;labelBackgroundColor=none;fontColor=default;fontStyle=1" parent="1" source="mepEjF3Km3tL2axybcSp-305" target="mepEjF3Km3tL2axybcSp-322" edge="1">
          <mxGeometry width="50" height="50" relative="1" as="geometry">
            <mxPoint x="6583.33" y="-463.3200000000001" as="sourcePoint" />
            <mxPoint x="6633.33" y="-513.3200000000002" as="targetPoint" />
          </mxGeometry>
        </mxCell>
        <mxCell id="mepEjF3Km3tL2axybcSp-324" value="&lt;span&gt;Sim&lt;/span&gt;" style="text;html=1;align=center;verticalAlign=middle;resizable=0;points=[];autosize=1;strokeColor=none;fillColor=none;rounded=0;labelBackgroundColor=none;fontStyle=1" parent="1" vertex="1">
          <mxGeometry x="6638.83" y="-585.8200000000002" width="40" height="30" as="geometry" />
        </mxCell>
        <mxCell id="mepEjF3Km3tL2axybcSp-325" value="&lt;span&gt;&quot;Nome longo demais, tente reduzi-lo \nGostaria de continuar ou voltar ao início? \n Digite 0 para continuar ou 1 para voltar ao começo&quot;&lt;/span&gt;" style="shape=document;whiteSpace=wrap;html=1;boundedLbl=1;rounded=0;labelBackgroundColor=none;fontStyle=1" parent="1" vertex="1">
          <mxGeometry x="6480.33" y="-725.32" width="210" height="84.68" as="geometry" />
        </mxCell>
        <mxCell id="mepEjF3Km3tL2axybcSp-326" value="" style="endArrow=classic;html=1;rounded=0;exitX=0.5;exitY=0;exitDx=0;exitDy=0;entryX=0.5;entryY=0.899;entryDx=0;entryDy=0;entryPerimeter=0;labelBackgroundColor=none;fontColor=default;fontStyle=1" parent="1" source="mepEjF3Km3tL2axybcSp-322" target="mepEjF3Km3tL2axybcSp-325" edge="1">
          <mxGeometry width="50" height="50" relative="1" as="geometry">
            <mxPoint x="6583.33" y="-463.3200000000001" as="sourcePoint" />
            <mxPoint x="6633.33" y="-513.3200000000002" as="targetPoint" />
          </mxGeometry>
        </mxCell>
        <mxCell id="mepEjF3Km3tL2axybcSp-327" value="&lt;span&gt;Não&lt;/span&gt;" style="text;html=1;align=center;verticalAlign=middle;resizable=0;points=[];autosize=1;strokeColor=none;fillColor=none;rounded=0;labelBackgroundColor=none;fontStyle=1" parent="1" vertex="1">
          <mxGeometry x="6536.83" y="-630.3200000000002" width="50" height="30" as="geometry" />
        </mxCell>
        <mxCell id="mepEjF3Km3tL2axybcSp-328" value="NEW_AGE &amp;gt; -1" style="rhombus;whiteSpace=wrap;html=1;rounded=0;labelBackgroundColor=none;fontStyle=1" parent="1" vertex="1">
          <mxGeometry x="7005.83" y="-591.3200000000002" width="108" height="108" as="geometry" />
        </mxCell>
        <mxCell id="mepEjF3Km3tL2axybcSp-329" value="" style="endArrow=classic;html=1;rounded=0;exitX=0.5;exitY=0;exitDx=0;exitDy=0;entryX=0.503;entryY=0.914;entryDx=0;entryDy=0;entryPerimeter=0;labelBackgroundColor=none;fontColor=default;fontStyle=1" parent="1" source="mepEjF3Km3tL2axybcSp-328" target="mepEjF3Km3tL2axybcSp-330" edge="1">
          <mxGeometry width="50" height="50" relative="1" as="geometry">
            <mxPoint x="7193.33" y="-553.3200000000002" as="sourcePoint" />
            <mxPoint x="7243.33" y="-603.3200000000002" as="targetPoint" />
          </mxGeometry>
        </mxCell>
        <mxCell id="Tq2M9Iyucr7lJhH_iC7z-137" value="" style="edgeStyle=orthogonalEdgeStyle;rounded=0;orthogonalLoop=1;jettySize=auto;html=1;" parent="1" source="mepEjF3Km3tL2axybcSp-330" target="mepEjF3Km3tL2axybcSp-714" edge="1">
          <mxGeometry relative="1" as="geometry" />
        </mxCell>
        <mxCell id="mepEjF3Km3tL2axybcSp-330" value="&lt;span&gt;&quot;Idade inválida, tente novamente \nGostaria de continuar ou voltar ao início? \n Digite 0 para continuar ou 1 para voltar ao começo&quot;&lt;/span&gt;" style="shape=document;whiteSpace=wrap;html=1;boundedLbl=1;rounded=0;labelBackgroundColor=none;fontStyle=1" parent="1" vertex="1">
          <mxGeometry x="6971.08" y="-728.6400000000001" width="177.25" height="113.32" as="geometry" />
        </mxCell>
        <mxCell id="mepEjF3Km3tL2axybcSp-331" value="Não" style="text;html=1;align=center;verticalAlign=middle;resizable=0;points=[];autosize=1;strokeColor=none;fillColor=none;rounded=0;labelBackgroundColor=none;fontStyle=1" parent="1" vertex="1">
          <mxGeometry x="7013.83" y="-615.8200000000002" width="50" height="30" as="geometry" />
        </mxCell>
        <mxCell id="mepEjF3Km3tL2axybcSp-332" value="" style="endArrow=classic;html=1;rounded=0;exitX=1;exitY=0.5;exitDx=0;exitDy=0;entryX=-0.025;entryY=0.616;entryDx=0;entryDy=0;entryPerimeter=0;labelBackgroundColor=none;fontColor=default;fontStyle=1" parent="1" source="mepEjF3Km3tL2axybcSp-328" target="mepEjF3Km3tL2axybcSp-309" edge="1">
          <mxGeometry width="50" height="50" relative="1" as="geometry">
            <mxPoint x="7193.33" y="-553.3200000000002" as="sourcePoint" />
            <mxPoint x="7243.33" y="-603.3200000000002" as="targetPoint" />
          </mxGeometry>
        </mxCell>
        <mxCell id="mepEjF3Km3tL2axybcSp-333" value="Sim" style="text;html=1;align=center;verticalAlign=middle;resizable=0;points=[];autosize=1;strokeColor=none;fillColor=none;rounded=0;labelBackgroundColor=none;fontStyle=1" parent="1" vertex="1">
          <mxGeometry x="7113.83" y="-566.9800000000001" width="40" height="30" as="geometry" />
        </mxCell>
        <mxCell id="Tq2M9Iyucr7lJhH_iC7z-145" value="" style="edgeStyle=orthogonalEdgeStyle;rounded=0;orthogonalLoop=1;jettySize=auto;html=1;" parent="1" source="mepEjF3Km3tL2axybcSp-334" target="mepEjF3Km3tL2axybcSp-339" edge="1">
          <mxGeometry relative="1" as="geometry" />
        </mxCell>
        <mxCell id="Tq2M9Iyucr7lJhH_iC7z-155" value="" style="edgeStyle=orthogonalEdgeStyle;rounded=0;orthogonalLoop=1;jettySize=auto;html=1;" parent="1" source="mepEjF3Km3tL2axybcSp-334" target="mepEjF3Km3tL2axybcSp-317" edge="1">
          <mxGeometry relative="1" as="geometry" />
        </mxCell>
        <mxCell id="mepEjF3Km3tL2axybcSp-334" value="NEW_BALANCE &amp;gt; -1" style="rhombus;whiteSpace=wrap;html=1;rounded=0;labelBackgroundColor=none;fontStyle=1" parent="1" vertex="1">
          <mxGeometry x="7495.16" y="-620.0700000000002" width="129.5" height="129.5" as="geometry" />
        </mxCell>
        <mxCell id="mepEjF3Km3tL2axybcSp-336" value="Sim" style="text;html=1;align=center;verticalAlign=middle;resizable=0;points=[];autosize=1;strokeColor=none;fillColor=none;rounded=0;labelBackgroundColor=none;fontStyle=1" parent="1" vertex="1">
          <mxGeometry x="7624.66" y="-591.3200000000002" width="40" height="30" as="geometry" />
        </mxCell>
        <mxCell id="mepEjF3Km3tL2axybcSp-338" value="Não" style="text;html=1;align=center;verticalAlign=middle;resizable=0;points=[];autosize=1;strokeColor=none;fillColor=none;rounded=0;labelBackgroundColor=none;fontStyle=1" parent="1" vertex="1">
          <mxGeometry x="7561.83" y="-645.8200000000002" width="50" height="30" as="geometry" />
        </mxCell>
        <mxCell id="Tq2M9Iyucr7lJhH_iC7z-146" value="" style="edgeStyle=orthogonalEdgeStyle;rounded=0;orthogonalLoop=1;jettySize=auto;html=1;" parent="1" source="mepEjF3Km3tL2axybcSp-339" target="mepEjF3Km3tL2axybcSp-721" edge="1">
          <mxGeometry relative="1" as="geometry" />
        </mxCell>
        <mxCell id="mepEjF3Km3tL2axybcSp-339" value="&quot;Saldo insuficiente, tente novamente \nGostaria de continuar ou voltaro ao início? \n Digite 0 para continuar ou 1 para voltar ao comeo&quot;" style="shape=document;whiteSpace=wrap;html=1;boundedLbl=1;rounded=0;labelBackgroundColor=none;fontStyle=1" parent="1" vertex="1">
          <mxGeometry x="7481.83" y="-829.8300000000002" width="156.17" height="125.82" as="geometry" />
        </mxCell>
        <mxCell id="mepEjF3Km3tL2axybcSp-384" value="USER_AMOUNT--" style="rounded=0;whiteSpace=wrap;html=1;labelBackgroundColor=none;fontStyle=1" parent="1" vertex="1">
          <mxGeometry x="7711.83" y="-780.3200000000002" width="120" height="60" as="geometry" />
        </mxCell>
        <mxCell id="Tq2M9Iyucr7lJhH_iC7z-169" style="edgeStyle=orthogonalEdgeStyle;rounded=0;orthogonalLoop=1;jettySize=auto;html=1;entryX=0.5;entryY=1;entryDx=0;entryDy=0;" parent="1" source="mepEjF3Km3tL2axybcSp-386" target="TousfeBBo66vvZQj1fM5-77" edge="1">
          <mxGeometry relative="1" as="geometry">
            <Array as="points">
              <mxPoint x="7943" y="-881" />
              <mxPoint x="6881" y="-881" />
            </Array>
            <mxPoint x="6924.33" y="-880.5949999999993" as="targetPoint" />
          </mxGeometry>
        </mxCell>
        <mxCell id="Tq2M9Iyucr7lJhH_iC7z-171" style="edgeStyle=orthogonalEdgeStyle;rounded=0;orthogonalLoop=1;jettySize=auto;html=1;entryX=0;entryY=0.75;entryDx=0;entryDy=0;" parent="1" source="mepEjF3Km3tL2axybcSp-386" target="mepEjF3Km3tL2axybcSp-302" edge="1">
          <mxGeometry relative="1" as="geometry">
            <Array as="points">
              <mxPoint x="7942.83" y="-450" />
              <mxPoint x="6268.83" y="-450" />
              <mxPoint x="6268.83" y="-537" />
            </Array>
          </mxGeometry>
        </mxCell>
        <mxCell id="mepEjF3Km3tL2axybcSp-386" value="USER_AMOUNT &amp;gt; 0" style="rhombus;whiteSpace=wrap;html=1;rounded=0;labelBackgroundColor=none;fontStyle=1" parent="1" vertex="1">
          <mxGeometry x="7881.83" y="-815.6399999999999" width="123" height="123" as="geometry" />
        </mxCell>
        <mxCell id="mepEjF3Km3tL2axybcSp-387" value="" style="endArrow=classic;html=1;rounded=0;exitX=1;exitY=0.5;exitDx=0;exitDy=0;entryX=0;entryY=0.5;entryDx=0;entryDy=0;labelBackgroundColor=none;fontColor=default;fontStyle=1" parent="1" source="mepEjF3Km3tL2axybcSp-384" target="mepEjF3Km3tL2axybcSp-386" edge="1">
          <mxGeometry width="50" height="50" relative="1" as="geometry">
            <mxPoint x="8523.33" y="-463.3200000000001" as="sourcePoint" />
            <mxPoint x="8573.33" y="-513.3200000000002" as="targetPoint" />
          </mxGeometry>
        </mxCell>
        <mxCell id="mepEjF3Km3tL2axybcSp-388" value="Sim" style="text;html=1;align=center;verticalAlign=middle;resizable=0;points=[];autosize=1;strokeColor=none;fillColor=none;rounded=0;labelBackgroundColor=none;fontStyle=1" parent="1" vertex="1">
          <mxGeometry x="7901.83" y="-692.6400000000001" width="40" height="30" as="geometry" />
        </mxCell>
        <mxCell id="mepEjF3Km3tL2axybcSp-389" value="Não" style="text;strokeColor=none;align=center;fillColor=none;html=1;verticalAlign=middle;whiteSpace=wrap;rounded=0;labelBackgroundColor=none;fontStyle=1" parent="1" vertex="1">
          <mxGeometry x="7891.83" y="-834.6600000000002" width="60" height="30" as="geometry" />
        </mxCell>
        <mxCell id="mepEjF3Km3tL2axybcSp-399" value="início&lt;div&gt;find_user()&lt;/div&gt;" style="ellipse;whiteSpace=wrap;html=1;rounded=0;labelBackgroundColor=none;fontStyle=1" parent="1" vertex="1">
          <mxGeometry x="6364.08" y="390.1700000000001" width="120" height="80" as="geometry" />
        </mxCell>
        <mxCell id="mepEjF3Km3tL2axybcSp-400" value="&quot;Digite o ID do usuário que deseja acessar&quot;" style="shape=document;whiteSpace=wrap;html=1;boundedLbl=1;rounded=0;labelBackgroundColor=none;fontStyle=1" parent="1" vertex="1">
          <mxGeometry x="6529.58" y="390.1700000000001" width="120" height="80" as="geometry" />
        </mxCell>
        <mxCell id="mepEjF3Km3tL2axybcSp-401" value="ID" style="shape=manualInput;whiteSpace=wrap;html=1;rounded=0;labelBackgroundColor=none;fontStyle=1" parent="1" vertex="1">
          <mxGeometry x="6684.58" y="380.1700000000001" width="80" height="80" as="geometry" />
        </mxCell>
        <mxCell id="mepEjF3Km3tL2axybcSp-402" value="" style="endArrow=classic;html=1;rounded=0;exitX=1;exitY=0.5;exitDx=0;exitDy=0;labelBackgroundColor=none;fontColor=default;fontStyle=1" parent="1" edge="1">
          <mxGeometry width="50" height="50" relative="1" as="geometry">
            <mxPoint x="6648.58" y="430.1700000000001" as="sourcePoint" />
            <mxPoint x="6684.58" y="430.1700000000001" as="targetPoint" />
          </mxGeometry>
        </mxCell>
        <mxCell id="Tq2M9Iyucr7lJhH_iC7z-25" value="" style="edgeStyle=orthogonalEdgeStyle;rounded=0;orthogonalLoop=1;jettySize=auto;html=1;labelBackgroundColor=none;fontColor=default;fontStyle=1" parent="1" source="mepEjF3Km3tL2axybcSp-403" target="mepEjF3Km3tL2axybcSp-405" edge="1">
          <mxGeometry relative="1" as="geometry" />
        </mxCell>
        <mxCell id="mepEjF3Km3tL2axybcSp-403" value="ID &amp;gt; -1" style="rhombus;whiteSpace=wrap;html=1;rounded=0;labelBackgroundColor=none;fontStyle=1" parent="1" vertex="1">
          <mxGeometry x="6814.58" y="390.1700000000001" width="80" height="80" as="geometry" />
        </mxCell>
        <mxCell id="mepEjF3Km3tL2axybcSp-404" value="" style="endArrow=classic;html=1;rounded=0;entryX=0;entryY=0.5;entryDx=0;entryDy=0;exitX=1.029;exitY=0.639;exitDx=0;exitDy=0;exitPerimeter=0;labelBackgroundColor=none;fontColor=default;fontStyle=1" parent="1" source="mepEjF3Km3tL2axybcSp-401" target="mepEjF3Km3tL2axybcSp-403" edge="1">
          <mxGeometry width="50" height="50" relative="1" as="geometry">
            <mxPoint x="6804.58" y="470.1700000000001" as="sourcePoint" />
            <mxPoint x="6904.58" y="340.1700000000001" as="targetPoint" />
          </mxGeometry>
        </mxCell>
        <mxCell id="Tq2M9Iyucr7lJhH_iC7z-26" value="" style="edgeStyle=orthogonalEdgeStyle;rounded=0;orthogonalLoop=1;jettySize=auto;html=1;labelBackgroundColor=none;fontColor=default;fontStyle=1" parent="1" source="mepEjF3Km3tL2axybcSp-405" target="mepEjF3Km3tL2axybcSp-727" edge="1">
          <mxGeometry relative="1" as="geometry" />
        </mxCell>
        <mxCell id="mepEjF3Km3tL2axybcSp-405" value="&quot;ID inválida, tente novamente \nGostaria de tentar outro número ou voltar ao início? \nPara tentar de novo, digite 0, para voltar ao início, digite 1&quot;" style="shape=document;whiteSpace=wrap;html=1;boundedLbl=1;rounded=0;labelBackgroundColor=none;fontStyle=1" parent="1" vertex="1">
          <mxGeometry x="6765.08" y="240.17000000000004" width="179.5" height="107.32" as="geometry" />
        </mxCell>
        <mxCell id="mepEjF3Km3tL2axybcSp-419" value="" style="endArrow=classic;html=1;rounded=0;exitX=0;exitY=0.5;exitDx=0;exitDy=0;entryX=0.5;entryY=0;entryDx=0;entryDy=0;labelBackgroundColor=none;fontColor=default;fontStyle=1" parent="1" source="mepEjF3Km3tL2axybcSp-728" edge="1">
          <mxGeometry width="50" height="50" relative="1" as="geometry">
            <mxPoint x="6676.08" y="25.8299999999999" as="sourcePoint" />
            <mxPoint x="6588.58" y="390.1700000000001" as="targetPoint" />
            <Array as="points">
              <mxPoint x="6589.08" y="37.48999999999975" />
            </Array>
          </mxGeometry>
        </mxCell>
        <mxCell id="mepEjF3Km3tL2axybcSp-420" value="Não" style="text;html=1;align=center;verticalAlign=middle;resizable=0;points=[];autosize=1;strokeColor=none;fillColor=none;rounded=0;labelBackgroundColor=none;fontStyle=1" parent="1" vertex="1">
          <mxGeometry x="6954.58" y="360.1700000000001" width="50" height="30" as="geometry" />
        </mxCell>
        <mxCell id="mepEjF3Km3tL2axybcSp-421" value="" style="endArrow=classic;html=1;rounded=0;exitX=1;exitY=0.5;exitDx=0;exitDy=0;labelBackgroundColor=none;fontColor=default;fontStyle=1" parent="1" source="mepEjF3Km3tL2axybcSp-403" edge="1">
          <mxGeometry width="50" height="50" relative="1" as="geometry">
            <mxPoint x="6774.58" y="340.1700000000001" as="sourcePoint" />
            <mxPoint x="6984.58" y="430.1700000000001" as="targetPoint" />
          </mxGeometry>
        </mxCell>
        <mxCell id="mepEjF3Km3tL2axybcSp-422" value="Sim" style="text;html=1;align=center;verticalAlign=middle;resizable=0;points=[];autosize=1;strokeColor=none;fillColor=none;rounded=0;labelBackgroundColor=none;fontStyle=1" parent="1" vertex="1">
          <mxGeometry x="6904.58" y="398.1700000000001" width="40" height="30" as="geometry" />
        </mxCell>
        <mxCell id="mepEjF3Km3tL2axybcSp-423" value="Procurar linha de número ID em UserData.txt" style="rounded=0;whiteSpace=wrap;html=1;labelBackgroundColor=none;fontStyle=1" parent="1" vertex="1">
          <mxGeometry x="6950.539999999999" y="400.1700000000001" width="120" height="60" as="geometry" />
        </mxCell>
        <mxCell id="Tq2M9Iyucr7lJhH_iC7z-28" value="" style="edgeStyle=orthogonalEdgeStyle;rounded=0;orthogonalLoop=1;jettySize=auto;html=1;labelBackgroundColor=none;fontColor=default;fontStyle=1" parent="1" source="mepEjF3Km3tL2axybcSp-424" target="mepEjF3Km3tL2axybcSp-426" edge="1">
          <mxGeometry relative="1" as="geometry" />
        </mxCell>
        <mxCell id="mepEjF3Km3tL2axybcSp-424" value="USERDATA = linha(ID)" style="rounded=0;whiteSpace=wrap;html=1;labelBackgroundColor=none;fontStyle=1" parent="1" vertex="1">
          <mxGeometry x="7120.58" y="400.1700000000001" width="120" height="60" as="geometry" />
        </mxCell>
        <mxCell id="mepEjF3Km3tL2axybcSp-425" value="" style="endArrow=classic;html=1;rounded=0;exitX=1;exitY=0.5;exitDx=0;exitDy=0;entryX=0;entryY=0.5;entryDx=0;entryDy=0;labelBackgroundColor=none;fontColor=default;fontStyle=1" parent="1" source="mepEjF3Km3tL2axybcSp-423" target="mepEjF3Km3tL2axybcSp-424" edge="1">
          <mxGeometry width="50" height="50" relative="1" as="geometry">
            <mxPoint x="7134.58" y="520.1700000000001" as="sourcePoint" />
            <mxPoint x="7184.58" y="470.1700000000001" as="targetPoint" />
          </mxGeometry>
        </mxCell>
        <mxCell id="mepEjF3Km3tL2axybcSp-426" value="&quot;%s&quot;, USERDATA" style="shape=document;whiteSpace=wrap;html=1;boundedLbl=1;rounded=0;labelBackgroundColor=none;fontStyle=1" parent="1" vertex="1">
          <mxGeometry x="7120.58" y="197.15999999999983" width="120" height="80" as="geometry" />
        </mxCell>
        <mxCell id="Tq2M9Iyucr7lJhH_iC7z-30" value="" style="edgeStyle=orthogonalEdgeStyle;rounded=0;orthogonalLoop=1;jettySize=auto;html=1;labelBackgroundColor=none;fontColor=default;fontStyle=1" parent="1" source="mepEjF3Km3tL2axybcSp-430" target="mepEjF3Km3tL2axybcSp-868" edge="1">
          <mxGeometry relative="1" as="geometry" />
        </mxCell>
        <mxCell id="mepEjF3Km3tL2axybcSp-430" value="menu()" style="rounded=0;whiteSpace=wrap;html=1;labelBackgroundColor=none;fontStyle=1" parent="1" vertex="1">
          <mxGeometry x="7011.96" y="7.489999999999753" width="120" height="60" as="geometry" />
        </mxCell>
        <mxCell id="mepEjF3Km3tL2axybcSp-435" value="&quot;Digite o ID daquele que terá o dinheiro transferido&quot;" style="shape=document;whiteSpace=wrap;html=1;boundedLbl=1;rounded=0;labelBackgroundColor=none;fontStyle=1" parent="1" vertex="1">
          <mxGeometry x="5975.38" y="946.8" width="120" height="66.98" as="geometry" />
        </mxCell>
        <mxCell id="mepEjF3Km3tL2axybcSp-436" value="" style="endArrow=classic;html=1;rounded=0;exitX=1;exitY=0.5;exitDx=0;exitDy=0;entryX=0;entryY=0.5;entryDx=0;entryDy=0;labelBackgroundColor=none;fontColor=default;fontStyle=1" parent="1" source="mepEjF3Km3tL2axybcSp-435" target="mepEjF3Km3tL2axybcSp-870" edge="1">
          <mxGeometry width="50" height="50" relative="1" as="geometry">
            <mxPoint x="6111.55" y="944.1300000000001" as="sourcePoint" />
            <mxPoint x="6141.55" y="934.1300000000001" as="targetPoint" />
          </mxGeometry>
        </mxCell>
        <mxCell id="Tq2M9Iyucr7lJhH_iC7z-42" value="" style="edgeStyle=orthogonalEdgeStyle;rounded=0;orthogonalLoop=1;jettySize=auto;html=1;labelBackgroundColor=none;fontColor=default;fontStyle=1" parent="1" source="mepEjF3Km3tL2axybcSp-461" target="mepEjF3Km3tL2axybcSp-740" edge="1">
          <mxGeometry relative="1" as="geometry" />
        </mxCell>
        <mxCell id="mepEjF3Km3tL2axybcSp-461" value="&quot;A conta está correta? \nDigite 0 para sim ou 1 para não&quot;" style="shape=document;whiteSpace=wrap;html=1;boundedLbl=1;rounded=0;labelBackgroundColor=none;fontStyle=1" parent="1" vertex="1">
          <mxGeometry x="6272.63" y="941.1200000000001" width="120" height="80" as="geometry" />
        </mxCell>
        <mxCell id="Tq2M9Iyucr7lJhH_iC7z-51" style="edgeStyle=orthogonalEdgeStyle;rounded=0;orthogonalLoop=1;jettySize=auto;html=1;labelBackgroundColor=none;fontColor=default;fontStyle=1" parent="1" source="mepEjF3Km3tL2axybcSp-463" target="mepEjF3Km3tL2axybcSp-878" edge="1">
          <mxGeometry relative="1" as="geometry" />
        </mxCell>
        <mxCell id="mepEjF3Km3tL2axybcSp-463" value="&quot;Digite o ID da conta a receber os fundos&quot;" style="shape=document;whiteSpace=wrap;html=1;boundedLbl=1;rounded=0;labelBackgroundColor=none;fontStyle=1" parent="1" vertex="1">
          <mxGeometry x="6593.8" y="1038.2900000000002" width="120" height="80" as="geometry" />
        </mxCell>
        <mxCell id="Tq2M9Iyucr7lJhH_iC7z-63" value="" style="edgeStyle=orthogonalEdgeStyle;rounded=0;orthogonalLoop=1;jettySize=auto;html=1;fontStyle=1" parent="1" source="mepEjF3Km3tL2axybcSp-489" target="mepEjF3Km3tL2axybcSp-763" edge="1">
          <mxGeometry relative="1" as="geometry" />
        </mxCell>
        <mxCell id="mepEjF3Km3tL2axybcSp-489" value="&quot;A conta está correta? \nDigite 0 para sim ou 1 para não&quot;" style="shape=document;whiteSpace=wrap;html=1;boundedLbl=1;rounded=0;labelBackgroundColor=none;fontStyle=1" parent="1" vertex="1">
          <mxGeometry x="6593.8" y="1258.29" width="120" height="80" as="geometry" />
        </mxCell>
        <mxCell id="Tq2M9Iyucr7lJhH_iC7z-66" value="" style="edgeStyle=orthogonalEdgeStyle;rounded=0;orthogonalLoop=1;jettySize=auto;html=1;fontStyle=1" parent="1" source="mepEjF3Km3tL2axybcSp-507" target="mepEjF3Km3tL2axybcSp-508" edge="1">
          <mxGeometry relative="1" as="geometry" />
        </mxCell>
        <mxCell id="mepEjF3Km3tL2axybcSp-507" value="balance1 = userdata1(número após a segunda vírgula)" style="rounded=0;whiteSpace=wrap;html=1;labelBackgroundColor=none;fontStyle=1" parent="1" vertex="1">
          <mxGeometry x="5796.55" y="1033.97" width="180" height="90" as="geometry" />
        </mxCell>
        <mxCell id="Tq2M9Iyucr7lJhH_iC7z-179" value="" style="edgeStyle=orthogonalEdgeStyle;rounded=0;orthogonalLoop=1;jettySize=auto;html=1;" parent="1" source="mepEjF3Km3tL2axybcSp-508" target="mepEjF3Km3tL2axybcSp-509" edge="1">
          <mxGeometry relative="1" as="geometry" />
        </mxCell>
        <mxCell id="mepEjF3Km3tL2axybcSp-508" value="balance2 = userdata2(número após a segunda vírgula)" style="rounded=0;whiteSpace=wrap;html=1;labelBackgroundColor=none;fontStyle=1" parent="1" vertex="1">
          <mxGeometry x="5796.55" y="1228.29" width="180" height="90" as="geometry" />
        </mxCell>
        <mxCell id="Tq2M9Iyucr7lJhH_iC7z-69" value="" style="edgeStyle=orthogonalEdgeStyle;rounded=0;orthogonalLoop=1;jettySize=auto;html=1;fontStyle=1" parent="1" source="mepEjF3Km3tL2axybcSp-509" target="mepEjF3Km3tL2axybcSp-512" edge="1">
          <mxGeometry relative="1" as="geometry" />
        </mxCell>
        <mxCell id="mepEjF3Km3tL2axybcSp-509" value="&quot;Insira o valor a ser transferido, seu saldo é de %f&quot;, balance1" style="shape=document;whiteSpace=wrap;html=1;boundedLbl=1;rounded=0;labelBackgroundColor=none;fontStyle=1" parent="1" vertex="1">
          <mxGeometry x="6033.8" y="1233.29" width="120" height="80" as="geometry" />
        </mxCell>
        <mxCell id="Tq2M9Iyucr7lJhH_iC7z-110" value="" style="edgeStyle=orthogonalEdgeStyle;rounded=0;orthogonalLoop=1;jettySize=auto;html=1;fontStyle=1" parent="1" source="mepEjF3Km3tL2axybcSp-512" target="mepEjF3Km3tL2axybcSp-514" edge="1">
          <mxGeometry relative="1" as="geometry" />
        </mxCell>
        <mxCell id="mepEjF3Km3tL2axybcSp-512" value="transfer" style="shape=manualInput;whiteSpace=wrap;html=1;rounded=0;labelBackgroundColor=none;fontStyle=1" parent="1" vertex="1">
          <mxGeometry x="6231.3" y="1278.29" width="80" height="80" as="geometry" />
        </mxCell>
        <mxCell id="Tq2M9Iyucr7lJhH_iC7z-71" value="" style="edgeStyle=orthogonalEdgeStyle;rounded=0;orthogonalLoop=1;jettySize=auto;html=1;fontStyle=1" parent="1" source="mepEjF3Km3tL2axybcSp-514" target="mepEjF3Km3tL2axybcSp-545" edge="1">
          <mxGeometry relative="1" as="geometry" />
        </mxCell>
        <mxCell id="Tq2M9Iyucr7lJhH_iC7z-101" style="edgeStyle=orthogonalEdgeStyle;rounded=0;orthogonalLoop=1;jettySize=auto;html=1;entryX=0.5;entryY=0;entryDx=0;entryDy=0;fontStyle=1" parent="1" source="mepEjF3Km3tL2axybcSp-514" target="mepEjF3Km3tL2axybcSp-516" edge="1">
          <mxGeometry relative="1" as="geometry" />
        </mxCell>
        <mxCell id="mepEjF3Km3tL2axybcSp-514" value="transfer &amp;lt;= balance1" style="rhombus;whiteSpace=wrap;html=1;rounded=0;labelBackgroundColor=none;fontStyle=1" parent="1" vertex="1">
          <mxGeometry x="6541.09" y="1343.29" width="100" height="100" as="geometry" />
        </mxCell>
        <mxCell id="Tq2M9Iyucr7lJhH_iC7z-104" style="edgeStyle=orthogonalEdgeStyle;rounded=0;orthogonalLoop=1;jettySize=auto;html=1;entryX=0.25;entryY=0;entryDx=0;entryDy=0;fontStyle=1" parent="1" source="mepEjF3Km3tL2axybcSp-516" target="mepEjF3Km3tL2axybcSp-772" edge="1">
          <mxGeometry relative="1" as="geometry" />
        </mxCell>
        <mxCell id="mepEjF3Km3tL2axybcSp-516" value="&quot;Saldo insuficiente \nDigite 0 para inserir outro valor ou 1 para voltar ao início&quot;" style="shape=document;whiteSpace=wrap;html=1;boundedLbl=1;rounded=0;labelBackgroundColor=none;fontStyle=1" parent="1" vertex="1">
          <mxGeometry x="6504.55" y="1475.29" width="174.58" height="80" as="geometry" />
        </mxCell>
        <mxCell id="mepEjF3Km3tL2axybcSp-544" value="Não" style="text;html=1;align=center;verticalAlign=middle;resizable=0;points=[];autosize=1;strokeColor=none;fillColor=none;rounded=0;labelBackgroundColor=none;fontStyle=1" parent="1" vertex="1">
          <mxGeometry x="6514.8" y="1088.29" width="50" height="30" as="geometry" />
        </mxCell>
        <mxCell id="Tq2M9Iyucr7lJhH_iC7z-76" value="" style="edgeStyle=orthogonalEdgeStyle;rounded=0;orthogonalLoop=1;jettySize=auto;html=1;fontStyle=1" parent="1" source="mepEjF3Km3tL2axybcSp-545" target="mepEjF3Km3tL2axybcSp-555" edge="1">
          <mxGeometry relative="1" as="geometry" />
        </mxCell>
        <mxCell id="Tq2M9Iyucr7lJhH_iC7z-181" value="" style="edgeStyle=orthogonalEdgeStyle;rounded=0;orthogonalLoop=1;jettySize=auto;html=1;" parent="1" source="mepEjF3Km3tL2axybcSp-545" target="mepEjF3Km3tL2axybcSp-552" edge="1">
          <mxGeometry relative="1" as="geometry" />
        </mxCell>
        <mxCell id="mepEjF3Km3tL2axybcSp-545" value="transfer &amp;gt;= 0" style="rhombus;whiteSpace=wrap;html=1;rounded=0;labelBackgroundColor=none;fontStyle=1" parent="1" vertex="1">
          <mxGeometry x="6789.63" y="1348.29" width="90" height="90" as="geometry" />
        </mxCell>
        <mxCell id="mepEjF3Km3tL2axybcSp-547" value="Não" style="text;html=1;align=center;verticalAlign=middle;resizable=0;points=[];autosize=1;strokeColor=none;fillColor=none;rounded=0;labelBackgroundColor=none;fontStyle=1" parent="1" vertex="1">
          <mxGeometry x="6541.09" y="1438.2899999999995" width="50" height="30" as="geometry" />
        </mxCell>
        <mxCell id="mepEjF3Km3tL2axybcSp-548" value="Sim" style="text;html=1;align=center;verticalAlign=middle;resizable=0;points=[];autosize=1;strokeColor=none;fillColor=none;rounded=0;labelBackgroundColor=none;fontStyle=1" parent="1" vertex="1">
          <mxGeometry x="6632.88" y="1395.6099999999997" width="40" height="30" as="geometry" />
        </mxCell>
        <mxCell id="Tq2M9Iyucr7lJhH_iC7z-103" style="edgeStyle=orthogonalEdgeStyle;rounded=0;orthogonalLoop=1;jettySize=auto;html=1;entryX=0.75;entryY=0;entryDx=0;entryDy=0;fontStyle=1" parent="1" source="mepEjF3Km3tL2axybcSp-552" target="mepEjF3Km3tL2axybcSp-772" edge="1">
          <mxGeometry relative="1" as="geometry" />
        </mxCell>
        <mxCell id="mepEjF3Km3tL2axybcSp-552" value="&quot;Valor de transferência inválido \nDigite 0 para tentar novamente ou 1 para voltar ao início&quot;" style="shape=document;whiteSpace=wrap;html=1;boundedLbl=1;rounded=0;labelBackgroundColor=none;fontStyle=1" parent="1" vertex="1">
          <mxGeometry x="6731.13" y="1480.29" width="208.25" height="70" as="geometry" />
        </mxCell>
        <mxCell id="mepEjF3Km3tL2axybcSp-554" value="Não" style="text;html=1;align=center;verticalAlign=middle;resizable=0;points=[];autosize=1;strokeColor=none;fillColor=none;rounded=0;labelBackgroundColor=none;fontStyle=1" parent="1" vertex="1">
          <mxGeometry x="6835.76" y="1438.29" width="50" height="30" as="geometry" />
        </mxCell>
        <mxCell id="Tq2M9Iyucr7lJhH_iC7z-82" value="" style="edgeStyle=orthogonalEdgeStyle;rounded=0;orthogonalLoop=1;jettySize=auto;html=1;fontStyle=1" parent="1" source="mepEjF3Km3tL2axybcSp-555" target="mepEjF3Km3tL2axybcSp-558" edge="1">
          <mxGeometry relative="1" as="geometry" />
        </mxCell>
        <mxCell id="mepEjF3Km3tL2axybcSp-555" value="balance1 = balance1 - transfer" style="rounded=0;whiteSpace=wrap;html=1;labelBackgroundColor=none;fontStyle=1" parent="1" vertex="1">
          <mxGeometry x="6761.63" y="1228.29" width="145.83" height="55" as="geometry" />
        </mxCell>
        <mxCell id="mepEjF3Km3tL2axybcSp-557" value="Sim" style="text;html=1;align=center;verticalAlign=middle;resizable=0;points=[];autosize=1;strokeColor=none;fillColor=none;rounded=0;labelBackgroundColor=none;fontStyle=1" parent="1" vertex="1">
          <mxGeometry x="6833.38" y="1318.29" width="40" height="30" as="geometry" />
        </mxCell>
        <mxCell id="Tq2M9Iyucr7lJhH_iC7z-83" value="" style="edgeStyle=orthogonalEdgeStyle;rounded=0;orthogonalLoop=1;jettySize=auto;html=1;fontStyle=1" parent="1" source="mepEjF3Km3tL2axybcSp-558" target="mepEjF3Km3tL2axybcSp-560" edge="1">
          <mxGeometry relative="1" as="geometry" />
        </mxCell>
        <mxCell id="mepEjF3Km3tL2axybcSp-558" value="balance2 = balance2 + transfer" style="rounded=0;whiteSpace=wrap;html=1;labelBackgroundColor=none;fontStyle=1" parent="1" vertex="1">
          <mxGeometry x="6761.46" y="1088.29" width="146" height="75" as="geometry" />
        </mxCell>
        <mxCell id="Tq2M9Iyucr7lJhH_iC7z-174" value="" style="edgeStyle=orthogonalEdgeStyle;rounded=0;orthogonalLoop=1;jettySize=auto;html=1;" parent="1" source="mepEjF3Km3tL2axybcSp-560" target="mepEjF3Km3tL2axybcSp-562" edge="1">
          <mxGeometry relative="1" as="geometry" />
        </mxCell>
        <mxCell id="mepEjF3Km3tL2axybcSp-560" value="userdata1 = userdata1(balance1 após a segunda vírgula)" style="rounded=0;whiteSpace=wrap;html=1;labelBackgroundColor=none;fontStyle=1" parent="1" vertex="1">
          <mxGeometry x="6762.3" y="937.29" width="142.5" height="96.68" as="geometry" />
        </mxCell>
        <mxCell id="Tq2M9Iyucr7lJhH_iC7z-114" style="edgeStyle=orthogonalEdgeStyle;rounded=0;orthogonalLoop=1;jettySize=auto;html=1;entryX=0.5;entryY=0;entryDx=0;entryDy=0;fontStyle=1" parent="1" source="mepEjF3Km3tL2axybcSp-562" target="mepEjF3Km3tL2axybcSp-564" edge="1">
          <mxGeometry relative="1" as="geometry" />
        </mxCell>
        <mxCell id="mepEjF3Km3tL2axybcSp-562" value="userdata2 = userdata2(balance2 após a segunda vírgula)" style="rounded=0;whiteSpace=wrap;html=1;labelBackgroundColor=none;fontStyle=1" parent="1" vertex="1">
          <mxGeometry x="6969.22" y="957.9700000000005" width="137.17" height="55.32" as="geometry" />
        </mxCell>
        <mxCell id="Tq2M9Iyucr7lJhH_iC7z-115" value="" style="edgeStyle=orthogonalEdgeStyle;rounded=0;orthogonalLoop=1;jettySize=auto;html=1;fontStyle=1" parent="1" source="mepEjF3Km3tL2axybcSp-564" target="mepEjF3Km3tL2axybcSp-565" edge="1">
          <mxGeometry relative="1" as="geometry" />
        </mxCell>
        <mxCell id="mepEjF3Km3tL2axybcSp-564" value="Apagar linha(id1) de UserData.txt" style="rounded=0;whiteSpace=wrap;html=1;labelBackgroundColor=none;fontStyle=1" parent="1" vertex="1">
          <mxGeometry x="6987.63" y="1066.7800000000002" width="100" height="68.68" as="geometry" />
        </mxCell>
        <mxCell id="Tq2M9Iyucr7lJhH_iC7z-116" value="" style="edgeStyle=orthogonalEdgeStyle;rounded=0;orthogonalLoop=1;jettySize=auto;html=1;fontStyle=1" parent="1" source="mepEjF3Km3tL2axybcSp-565" target="mepEjF3Km3tL2axybcSp-566" edge="1">
          <mxGeometry relative="1" as="geometry" />
        </mxCell>
        <mxCell id="mepEjF3Km3tL2axybcSp-565" value="Escrever userdata1 na linha(id1) de UserData.txt" style="rounded=0;whiteSpace=wrap;html=1;labelBackgroundColor=none;fontStyle=1" parent="1" vertex="1">
          <mxGeometry x="6969.22" y="1200.9500000000007" width="137.67" height="54.68" as="geometry" />
        </mxCell>
        <mxCell id="Tq2M9Iyucr7lJhH_iC7z-87" style="edgeStyle=orthogonalEdgeStyle;rounded=0;orthogonalLoop=1;jettySize=auto;html=1;entryX=0.5;entryY=0;entryDx=0;entryDy=0;fontStyle=1" parent="1" source="mepEjF3Km3tL2axybcSp-566" target="mepEjF3Km3tL2axybcSp-567" edge="1">
          <mxGeometry relative="1" as="geometry" />
        </mxCell>
        <mxCell id="mepEjF3Km3tL2axybcSp-566" value="Apagar linha(id2) de UserData.txt" style="rounded=0;whiteSpace=wrap;html=1;labelBackgroundColor=none;fontStyle=1" parent="1" vertex="1">
          <mxGeometry x="6981.31" y="1293.29" width="113.5" height="50" as="geometry" />
        </mxCell>
        <mxCell id="Tq2M9Iyucr7lJhH_iC7z-118" value="" style="edgeStyle=orthogonalEdgeStyle;rounded=0;orthogonalLoop=1;jettySize=auto;html=1;fontStyle=1" parent="1" source="mepEjF3Km3tL2axybcSp-567" target="mepEjF3Km3tL2axybcSp-572" edge="1">
          <mxGeometry relative="1" as="geometry" />
        </mxCell>
        <mxCell id="mepEjF3Km3tL2axybcSp-567" value="Escrever &quot;userdata2&quot; na linha(id2) de UserData.txt" style="rounded=0;whiteSpace=wrap;html=1;labelBackgroundColor=none;fontStyle=1" parent="1" vertex="1">
          <mxGeometry x="6944.34" y="1386.9299999999998" width="189" height="48.68" as="geometry" />
        </mxCell>
        <mxCell id="Tq2M9Iyucr7lJhH_iC7z-117" value="" style="edgeStyle=orthogonalEdgeStyle;rounded=0;orthogonalLoop=1;jettySize=auto;html=1;fontStyle=1" parent="1" source="mepEjF3Km3tL2axybcSp-572" target="mepEjF3Km3tL2axybcSp-575" edge="1">
          <mxGeometry relative="1" as="geometry" />
        </mxCell>
        <mxCell id="mepEjF3Km3tL2axybcSp-572" value="Salvar UserData.txt" style="rounded=0;whiteSpace=wrap;html=1;labelBackgroundColor=none;fontStyle=1" parent="1" vertex="1">
          <mxGeometry x="7180.34" y="1385.6100000000006" width="100.5" height="50" as="geometry" />
        </mxCell>
        <mxCell id="Tq2M9Iyucr7lJhH_iC7z-175" style="edgeStyle=orthogonalEdgeStyle;rounded=0;orthogonalLoop=1;jettySize=auto;html=1;" parent="1" source="mepEjF3Km3tL2axybcSp-575" edge="1">
          <mxGeometry relative="1" as="geometry">
            <mxPoint x="6956.8" y="1678.29" as="targetPoint" />
          </mxGeometry>
        </mxCell>
        <mxCell id="mepEjF3Km3tL2axybcSp-575" value="&quot;Transação efetuada com sucesso!&quot;" style="shape=document;whiteSpace=wrap;html=1;boundedLbl=1;rounded=0;labelBackgroundColor=none;fontStyle=1" parent="1" vertex="1">
          <mxGeometry x="7160.59" y="1487.610000000001" width="140" height="62.68" as="geometry" />
        </mxCell>
        <mxCell id="Tq2M9Iyucr7lJhH_iC7z-39" value="" style="edgeStyle=orthogonalEdgeStyle;rounded=0;orthogonalLoop=1;jettySize=auto;html=1;labelBackgroundColor=none;fontColor=default;fontStyle=1" parent="1" source="mepEjF3Km3tL2axybcSp-578" target="TousfeBBo66vvZQj1fM5-44" edge="1">
          <mxGeometry relative="1" as="geometry" />
        </mxCell>
        <mxCell id="mepEjF3Km3tL2axybcSp-578" value="Início&lt;div&gt;transfer()&lt;/div&gt;" style="ellipse;whiteSpace=wrap;html=1;rounded=0;labelBackgroundColor=none;fontStyle=1" parent="1" vertex="1">
          <mxGeometry x="5542.63" y="941.1200000000001" width="120" height="80" as="geometry" />
        </mxCell>
        <mxCell id="mepEjF3Km3tL2axybcSp-587" value="operations()" style="rounded=0;whiteSpace=wrap;html=1;labelBackgroundColor=none;fontStyle=1" parent="1" vertex="1">
          <mxGeometry x="6357.5" y="-1439.99" width="120" height="60" as="geometry" />
        </mxCell>
        <mxCell id="mepEjF3Km3tL2axybcSp-588" value="Fim&lt;div&gt;menu()&lt;/div&gt;" style="ellipse;whiteSpace=wrap;html=1;rounded=0;labelBackgroundColor=none;fontStyle=1" parent="1" vertex="1">
          <mxGeometry x="6506.5" y="-1449.99" width="120" height="80" as="geometry" />
        </mxCell>
        <mxCell id="mepEjF3Km3tL2axybcSp-589" value="" style="endArrow=classic;html=1;rounded=0;exitX=1;exitY=0.5;exitDx=0;exitDy=0;entryX=0;entryY=0.5;entryDx=0;entryDy=0;labelBackgroundColor=none;fontColor=default;fontStyle=1" parent="1" source="mepEjF3Km3tL2axybcSp-587" target="mepEjF3Km3tL2axybcSp-588" edge="1">
          <mxGeometry width="50" height="50" relative="1" as="geometry">
            <mxPoint x="6107" y="-1260.6399999999999" as="sourcePoint" />
            <mxPoint x="6157" y="-1310.6399999999999" as="targetPoint" />
          </mxGeometry>
        </mxCell>
        <mxCell id="Tq2M9Iyucr7lJhH_iC7z-5" style="edgeStyle=orthogonalEdgeStyle;rounded=0;orthogonalLoop=1;jettySize=auto;html=1;labelBackgroundColor=none;fontColor=default;fontStyle=1" parent="1" source="mepEjF3Km3tL2axybcSp-590" target="TousfeBBo66vvZQj1fM5-1" edge="1">
          <mxGeometry relative="1" as="geometry" />
        </mxCell>
        <mxCell id="mepEjF3Km3tL2axybcSp-590" value="Início&lt;div&gt;&lt;span style=&quot;background-color: initial;&quot;&gt;operations()&lt;/span&gt;&lt;/div&gt;" style="ellipse;whiteSpace=wrap;html=1;rounded=0;labelBackgroundColor=none;fontStyle=1" parent="1" vertex="1">
          <mxGeometry x="6838.33" y="-1780" width="100" height="80" as="geometry" />
        </mxCell>
        <mxCell id="Tq2M9Iyucr7lJhH_iC7z-135" value="" style="edgeStyle=orthogonalEdgeStyle;rounded=0;orthogonalLoop=1;jettySize=auto;html=1;" parent="1" source="mepEjF3Km3tL2axybcSp-593" target="mepEjF3Km3tL2axybcSp-595" edge="1">
          <mxGeometry relative="1" as="geometry" />
        </mxCell>
        <mxCell id="mepEjF3Km3tL2axybcSp-593" value="op" style="shape=manualInput;whiteSpace=wrap;html=1;rounded=0;labelBackgroundColor=none;fontStyle=1" parent="1" vertex="1">
          <mxGeometry x="6972.16" y="-1659.9999999999998" width="80" height="51.32" as="geometry" />
        </mxCell>
        <mxCell id="Tq2M9Iyucr7lJhH_iC7z-133" value="" style="edgeStyle=orthogonalEdgeStyle;rounded=0;orthogonalLoop=1;jettySize=auto;html=1;" parent="1" source="mepEjF3Km3tL2axybcSp-595" target="mepEjF3Km3tL2axybcSp-599" edge="1">
          <mxGeometry relative="1" as="geometry" />
        </mxCell>
        <mxCell id="mepEjF3Km3tL2axybcSp-595" value="switch(op)" style="rounded=0;whiteSpace=wrap;html=1;labelBackgroundColor=none;fontStyle=1" parent="1" vertex="1">
          <mxGeometry x="6966.83" y="-1566.6599999999999" width="89.5" height="50.68" as="geometry" />
        </mxCell>
        <mxCell id="mepEjF3Km3tL2axybcSp-599" value="case 1" style="rhombus;whiteSpace=wrap;html=1;rounded=0;labelBackgroundColor=none;fontStyle=1" parent="1" vertex="1">
          <mxGeometry x="7097.66" y="-1581.32" width="80" height="80" as="geometry" />
        </mxCell>
        <mxCell id="mepEjF3Km3tL2axybcSp-600" value="" style="endArrow=classic;html=1;rounded=0;exitX=0.5;exitY=1;exitDx=0;exitDy=0;labelBackgroundColor=none;fontColor=default;fontStyle=1" parent="1" source="mepEjF3Km3tL2axybcSp-599" edge="1">
          <mxGeometry width="50" height="50" relative="1" as="geometry">
            <mxPoint x="7353.16" y="-1245.32" as="sourcePoint" />
            <mxPoint x="7138.16" y="-1445.32" as="targetPoint" />
          </mxGeometry>
        </mxCell>
        <mxCell id="mepEjF3Km3tL2axybcSp-601" value="" style="endArrow=classic;html=1;rounded=0;exitX=1;exitY=0.5;exitDx=0;exitDy=0;labelBackgroundColor=none;fontColor=default;fontStyle=1" parent="1" source="mepEjF3Km3tL2axybcSp-599" edge="1">
          <mxGeometry width="50" height="50" relative="1" as="geometry">
            <mxPoint x="7192.16" y="-1545.32" as="sourcePoint" />
            <mxPoint x="7253.16" y="-1541.32" as="targetPoint" />
          </mxGeometry>
        </mxCell>
        <mxCell id="mepEjF3Km3tL2axybcSp-602" value="Sim" style="text;html=1;align=center;verticalAlign=middle;resizable=0;points=[];autosize=1;strokeColor=none;fillColor=none;rounded=0;labelBackgroundColor=none;fontStyle=1" parent="1" vertex="1">
          <mxGeometry x="7094.66" y="-1490" width="40" height="30" as="geometry" />
        </mxCell>
        <mxCell id="mepEjF3Km3tL2axybcSp-603" value="Não" style="text;html=1;align=center;verticalAlign=middle;resizable=0;points=[];autosize=1;strokeColor=none;fillColor=none;rounded=0;labelBackgroundColor=none;fontStyle=1" parent="1" vertex="1">
          <mxGeometry x="7177.66" y="-1571.32" width="50" height="30" as="geometry" />
        </mxCell>
        <mxCell id="mepEjF3Km3tL2axybcSp-604" value="new_user()" style="rounded=0;whiteSpace=wrap;html=1;labelBackgroundColor=none;fontStyle=1" parent="1" vertex="1">
          <mxGeometry x="7085.66" y="-1307" width="110" height="35.32" as="geometry" />
        </mxCell>
        <mxCell id="mepEjF3Km3tL2axybcSp-605" value="case 2" style="rhombus;whiteSpace=wrap;html=1;rounded=0;labelBackgroundColor=none;fontStyle=1" parent="1" vertex="1">
          <mxGeometry x="7253.32" y="-1581.32" width="80" height="80" as="geometry" />
        </mxCell>
        <mxCell id="mepEjF3Km3tL2axybcSp-610" value="" style="endArrow=classic;html=1;rounded=0;exitX=0.5;exitY=1;exitDx=0;exitDy=0;labelBackgroundColor=none;fontColor=default;fontStyle=1" parent="1" source="mepEjF3Km3tL2axybcSp-605" target="mepEjF3Km3tL2axybcSp-611" edge="1">
          <mxGeometry width="50" height="50" relative="1" as="geometry">
            <mxPoint x="7333.16" y="-1435.32" as="sourcePoint" />
            <mxPoint x="7383.16" y="-1485.32" as="targetPoint" />
          </mxGeometry>
        </mxCell>
        <mxCell id="mepEjF3Km3tL2axybcSp-611" value="multiple_users()" style="rounded=0;whiteSpace=wrap;html=1;labelBackgroundColor=none;fontStyle=1" parent="1" vertex="1">
          <mxGeometry x="7232.66" y="-1445.32" width="120" height="60" as="geometry" />
        </mxCell>
        <mxCell id="Tq2M9Iyucr7lJhH_iC7z-7" style="edgeStyle=orthogonalEdgeStyle;rounded=0;orthogonalLoop=1;jettySize=auto;html=1;entryX=0;entryY=0.5;entryDx=0;entryDy=0;labelBackgroundColor=none;fontColor=default;fontStyle=1" parent="1" source="mepEjF3Km3tL2axybcSp-612" target="mepEjF3Km3tL2axybcSp-616" edge="1">
          <mxGeometry relative="1" as="geometry" />
        </mxCell>
        <mxCell id="mepEjF3Km3tL2axybcSp-612" value="Início&lt;div&gt;multiple_users()&lt;/div&gt;" style="ellipse;whiteSpace=wrap;html=1;rounded=0;labelBackgroundColor=none;fontStyle=1" parent="1" vertex="1">
          <mxGeometry x="5132.25" y="-1009.09" width="107.62" height="80" as="geometry" />
        </mxCell>
        <mxCell id="mepEjF3Km3tL2axybcSp-616" value="&quot;Quantos usuários gostaria de cadastrar?&quot;" style="shape=document;whiteSpace=wrap;html=1;boundedLbl=1;rounded=0;labelBackgroundColor=none;fontStyle=1" parent="1" vertex="1">
          <mxGeometry x="5274.56" y="-1009.09" width="120" height="80" as="geometry" />
        </mxCell>
        <mxCell id="Tq2M9Iyucr7lJhH_iC7z-6" style="edgeStyle=orthogonalEdgeStyle;rounded=0;orthogonalLoop=1;jettySize=auto;html=1;entryX=0;entryY=0.5;entryDx=0;entryDy=0;labelBackgroundColor=none;fontColor=default;fontStyle=1" parent="1" source="mepEjF3Km3tL2axybcSp-617" target="mepEjF3Km3tL2axybcSp-619" edge="1">
          <mxGeometry relative="1" as="geometry" />
        </mxCell>
        <mxCell id="mepEjF3Km3tL2axybcSp-617" value="USER_AMOUNT" style="shape=manualInput;whiteSpace=wrap;html=1;rounded=0;labelBackgroundColor=none;fontStyle=1" parent="1" vertex="1">
          <mxGeometry x="5430.25" y="-1009.09" width="102" height="61.32" as="geometry" />
        </mxCell>
        <mxCell id="mepEjF3Km3tL2axybcSp-618" value="" style="endArrow=classic;html=1;rounded=0;exitX=1;exitY=0.5;exitDx=0;exitDy=0;entryX=-0.032;entryY=0.615;entryDx=0;entryDy=0;entryPerimeter=0;labelBackgroundColor=none;fontColor=default;fontStyle=1" parent="1" source="mepEjF3Km3tL2axybcSp-616" target="mepEjF3Km3tL2axybcSp-617" edge="1">
          <mxGeometry width="50" height="50" relative="1" as="geometry">
            <mxPoint x="5345.25" y="-929.64" as="sourcePoint" />
            <mxPoint x="5395.25" y="-979.64" as="targetPoint" />
          </mxGeometry>
        </mxCell>
        <mxCell id="Tq2M9Iyucr7lJhH_iC7z-35" value="" style="edgeStyle=orthogonalEdgeStyle;rounded=0;orthogonalLoop=1;jettySize=auto;html=1;labelBackgroundColor=none;fontColor=default;fontStyle=1" parent="1" source="mepEjF3Km3tL2axybcSp-619" target="mepEjF3Km3tL2axybcSp-621" edge="1">
          <mxGeometry relative="1" as="geometry" />
        </mxCell>
        <mxCell id="Tq2M9Iyucr7lJhH_iC7z-36" value="" style="edgeStyle=orthogonalEdgeStyle;rounded=0;orthogonalLoop=1;jettySize=auto;html=1;labelBackgroundColor=none;fontColor=default;fontStyle=1" parent="1" source="mepEjF3Km3tL2axybcSp-619" target="mepEjF3Km3tL2axybcSp-628" edge="1">
          <mxGeometry relative="1" as="geometry" />
        </mxCell>
        <mxCell id="mepEjF3Km3tL2axybcSp-619" value="USER_AMOUNT &amp;gt; 0" style="rhombus;whiteSpace=wrap;html=1;rounded=0;labelBackgroundColor=none;fontStyle=1" parent="1" vertex="1">
          <mxGeometry x="5577.75" y="-1034.32" width="125.5" height="111.77" as="geometry" />
        </mxCell>
        <mxCell id="Tq2M9Iyucr7lJhH_iC7z-38" style="edgeStyle=orthogonalEdgeStyle;rounded=0;orthogonalLoop=1;jettySize=auto;html=1;labelBackgroundColor=none;fontColor=default;fontStyle=1" parent="1" source="mepEjF3Km3tL2axybcSp-621" edge="1">
          <mxGeometry relative="1" as="geometry">
            <mxPoint x="5322.25" y="-924.32" as="targetPoint" />
          </mxGeometry>
        </mxCell>
        <mxCell id="mepEjF3Km3tL2axybcSp-621" value="&quot;Valor inválido, insira um número maior que 0&quot;" style="shape=document;whiteSpace=wrap;html=1;boundedLbl=1;rounded=0;labelBackgroundColor=none;fontStyle=1" parent="1" vertex="1">
          <mxGeometry x="5580.5" y="-854.32" width="120" height="80" as="geometry" />
        </mxCell>
        <mxCell id="mepEjF3Km3tL2axybcSp-623" value="Não" style="text;html=1;align=center;verticalAlign=middle;resizable=0;points=[];autosize=1;strokeColor=none;fillColor=none;rounded=0;labelBackgroundColor=none;fontStyle=1" parent="1" vertex="1">
          <mxGeometry x="5638.42" y="-922.5500000000001" width="50" height="30" as="geometry" />
        </mxCell>
        <mxCell id="mepEjF3Km3tL2axybcSp-627" value="Sim" style="text;html=1;align=center;verticalAlign=middle;resizable=0;points=[];autosize=1;strokeColor=none;fillColor=none;rounded=0;labelBackgroundColor=none;fontStyle=1" parent="1" vertex="1">
          <mxGeometry x="5692.25" y="-1009.09" width="40" height="30" as="geometry" />
        </mxCell>
        <mxCell id="mepEjF3Km3tL2axybcSp-628" value="new_user()" style="rounded=0;whiteSpace=wrap;html=1;labelBackgroundColor=none;fontStyle=1" parent="1" vertex="1">
          <mxGeometry x="5736.25" y="-1009.09" width="120" height="60" as="geometry" />
        </mxCell>
        <mxCell id="mepEjF3Km3tL2axybcSp-629" value="case 3" style="rhombus;whiteSpace=wrap;html=1;rounded=0;labelBackgroundColor=none;fontStyle=1" parent="1" vertex="1">
          <mxGeometry x="7392.66" y="-1581.32" width="80" height="80" as="geometry" />
        </mxCell>
        <mxCell id="mepEjF3Km3tL2axybcSp-630" value="" style="endArrow=classic;html=1;rounded=0;exitX=1;exitY=0.5;exitDx=0;exitDy=0;entryX=0;entryY=0.5;entryDx=0;entryDy=0;labelBackgroundColor=none;fontColor=default;fontStyle=1" parent="1" source="mepEjF3Km3tL2axybcSp-605" target="mepEjF3Km3tL2axybcSp-629" edge="1">
          <mxGeometry width="50" height="50" relative="1" as="geometry">
            <mxPoint x="7403.16" y="-1425.32" as="sourcePoint" />
            <mxPoint x="7453.16" y="-1475.32" as="targetPoint" />
          </mxGeometry>
        </mxCell>
        <mxCell id="mepEjF3Km3tL2axybcSp-631" value="" style="endArrow=classic;html=1;rounded=0;exitX=0.5;exitY=1;exitDx=0;exitDy=0;entryX=0.5;entryY=0;entryDx=0;entryDy=0;labelBackgroundColor=none;fontColor=default;fontStyle=1" parent="1" source="mepEjF3Km3tL2axybcSp-629" target="mepEjF3Km3tL2axybcSp-632" edge="1">
          <mxGeometry width="50" height="50" relative="1" as="geometry">
            <mxPoint x="7453.16" y="-1385.32" as="sourcePoint" />
            <mxPoint x="7453.16" y="-1455.32" as="targetPoint" />
          </mxGeometry>
        </mxCell>
        <mxCell id="mepEjF3Km3tL2axybcSp-632" value="find_user()" style="rounded=0;whiteSpace=wrap;html=1;labelBackgroundColor=none;fontStyle=1" parent="1" vertex="1">
          <mxGeometry x="7372.66" y="-1445.32" width="120" height="60" as="geometry" />
        </mxCell>
        <mxCell id="mepEjF3Km3tL2axybcSp-633" value="case 4" style="rhombus;whiteSpace=wrap;html=1;rounded=0;labelBackgroundColor=none;fontStyle=1" parent="1" vertex="1">
          <mxGeometry x="7524.16" y="-1581.32" width="80" height="80" as="geometry" />
        </mxCell>
        <mxCell id="mepEjF3Km3tL2axybcSp-634" value="" style="endArrow=classic;html=1;rounded=0;exitX=1;exitY=0.5;exitDx=0;exitDy=0;entryX=0;entryY=0.5;entryDx=0;entryDy=0;labelBackgroundColor=none;fontColor=default;fontStyle=1" parent="1" source="mepEjF3Km3tL2axybcSp-629" target="mepEjF3Km3tL2axybcSp-633" edge="1">
          <mxGeometry width="50" height="50" relative="1" as="geometry">
            <mxPoint x="7503.16" y="-1395.32" as="sourcePoint" />
            <mxPoint x="7553.16" y="-1445.32" as="targetPoint" />
          </mxGeometry>
        </mxCell>
        <mxCell id="mepEjF3Km3tL2axybcSp-635" value="Sim" style="text;html=1;align=center;verticalAlign=middle;resizable=0;points=[];autosize=1;strokeColor=none;fillColor=none;rounded=0;labelBackgroundColor=none;fontStyle=1" parent="1" vertex="1">
          <mxGeometry x="7263.16" y="-1497.32" width="40" height="30" as="geometry" />
        </mxCell>
        <mxCell id="mepEjF3Km3tL2axybcSp-636" value="Sim" style="text;html=1;align=center;verticalAlign=middle;resizable=0;points=[];autosize=1;strokeColor=none;fillColor=none;rounded=0;labelBackgroundColor=none;fontStyle=1" parent="1" vertex="1">
          <mxGeometry x="7392.67" y="-1501.32" width="40" height="30" as="geometry" />
        </mxCell>
        <mxCell id="mepEjF3Km3tL2axybcSp-637" value="Sim" style="text;html=1;align=center;verticalAlign=middle;resizable=0;points=[];autosize=1;strokeColor=none;fillColor=none;rounded=0;labelBackgroundColor=none;fontStyle=1" parent="1" vertex="1">
          <mxGeometry x="7529.16" y="-1511.32" width="40" height="30" as="geometry" />
        </mxCell>
        <mxCell id="mepEjF3Km3tL2axybcSp-638" value="Não" style="text;html=1;align=center;verticalAlign=middle;resizable=0;points=[];autosize=1;strokeColor=none;fillColor=none;rounded=0;labelBackgroundColor=none;fontStyle=1" parent="1" vertex="1">
          <mxGeometry x="7317.66" y="-1571.32" width="50" height="30" as="geometry" />
        </mxCell>
        <mxCell id="mepEjF3Km3tL2axybcSp-639" value="Não" style="text;html=1;align=center;verticalAlign=middle;resizable=0;points=[];autosize=1;strokeColor=none;fillColor=none;rounded=0;labelBackgroundColor=none;fontStyle=1" parent="1" vertex="1">
          <mxGeometry x="7462.66" y="-1571.32" width="50" height="30" as="geometry" />
        </mxCell>
        <mxCell id="mepEjF3Km3tL2axybcSp-640" value="transfer()" style="rounded=0;whiteSpace=wrap;html=1;labelBackgroundColor=none;fontStyle=1" parent="1" vertex="1">
          <mxGeometry x="7504.16" y="-1445.32" width="120" height="60" as="geometry" />
        </mxCell>
        <mxCell id="mepEjF3Km3tL2axybcSp-641" value="" style="endArrow=classic;html=1;rounded=0;exitX=0.5;exitY=1;exitDx=0;exitDy=0;entryX=0.5;entryY=0;entryDx=0;entryDy=0;labelBackgroundColor=none;fontColor=default;fontStyle=1" parent="1" source="mepEjF3Km3tL2axybcSp-633" target="mepEjF3Km3tL2axybcSp-640" edge="1">
          <mxGeometry width="50" height="50" relative="1" as="geometry">
            <mxPoint x="7583.16" y="-1365.32" as="sourcePoint" />
            <mxPoint x="7633.16" y="-1415.32" as="targetPoint" />
          </mxGeometry>
        </mxCell>
        <mxCell id="mepEjF3Km3tL2axybcSp-642" value="case 5" style="rhombus;whiteSpace=wrap;html=1;rounded=0;labelBackgroundColor=none;fontStyle=1" parent="1" vertex="1">
          <mxGeometry x="7663.66" y="-1581.32" width="80" height="80" as="geometry" />
        </mxCell>
        <mxCell id="mepEjF3Km3tL2axybcSp-643" value="remove_user()" style="rounded=0;whiteSpace=wrap;html=1;labelBackgroundColor=none;fontStyle=1" parent="1" vertex="1">
          <mxGeometry x="7643.66" y="-1445.32" width="120" height="60" as="geometry" />
        </mxCell>
        <mxCell id="mepEjF3Km3tL2axybcSp-644" value="" style="endArrow=classic;html=1;rounded=0;exitX=1;exitY=0.5;exitDx=0;exitDy=0;entryX=0;entryY=0.5;entryDx=0;entryDy=0;labelBackgroundColor=none;fontColor=default;fontStyle=1" parent="1" source="mepEjF3Km3tL2axybcSp-633" target="mepEjF3Km3tL2axybcSp-642" edge="1">
          <mxGeometry width="50" height="50" relative="1" as="geometry">
            <mxPoint x="7623.16" y="-1355.32" as="sourcePoint" />
            <mxPoint x="7673.16" y="-1405.32" as="targetPoint" />
          </mxGeometry>
        </mxCell>
        <mxCell id="mepEjF3Km3tL2axybcSp-645" value="" style="endArrow=classic;html=1;rounded=0;exitX=0.5;exitY=1;exitDx=0;exitDy=0;entryX=0.5;entryY=0;entryDx=0;entryDy=0;labelBackgroundColor=none;fontColor=default;fontStyle=1" parent="1" source="mepEjF3Km3tL2axybcSp-642" target="mepEjF3Km3tL2axybcSp-643" edge="1">
          <mxGeometry width="50" height="50" relative="1" as="geometry">
            <mxPoint x="7623.16" y="-1355.32" as="sourcePoint" />
            <mxPoint x="7673.16" y="-1405.32" as="targetPoint" />
          </mxGeometry>
        </mxCell>
        <mxCell id="mepEjF3Km3tL2axybcSp-646" value="Sim" style="text;html=1;align=center;verticalAlign=middle;resizable=0;points=[];autosize=1;strokeColor=none;fillColor=none;rounded=0;labelBackgroundColor=none;fontStyle=1" parent="1" vertex="1">
          <mxGeometry x="7663.66" y="-1511.32" width="40" height="30" as="geometry" />
        </mxCell>
        <mxCell id="mepEjF3Km3tL2axybcSp-647" value="Não" style="text;html=1;align=center;verticalAlign=middle;resizable=0;points=[];autosize=1;strokeColor=none;fillColor=none;rounded=0;labelBackgroundColor=none;fontStyle=1" parent="1" vertex="1">
          <mxGeometry x="7593.66" y="-1571.32" width="50" height="30" as="geometry" />
        </mxCell>
        <mxCell id="mepEjF3Km3tL2axybcSp-648" value="case 6" style="rhombus;whiteSpace=wrap;html=1;rounded=0;labelBackgroundColor=none;fontStyle=1" parent="1" vertex="1">
          <mxGeometry x="7797.66" y="-1581.32" width="80" height="80" as="geometry" />
        </mxCell>
        <mxCell id="mepEjF3Km3tL2axybcSp-650" value="Fechar Programa" style="rounded=0;whiteSpace=wrap;html=1;labelBackgroundColor=none;fontStyle=1" parent="1" vertex="1">
          <mxGeometry x="7777.66" y="-1445.32" width="120" height="60" as="geometry" />
        </mxCell>
        <mxCell id="mepEjF3Km3tL2axybcSp-651" value="" style="endArrow=classic;html=1;rounded=0;exitX=0.5;exitY=1;exitDx=0;exitDy=0;entryX=0.5;entryY=0;entryDx=0;entryDy=0;labelBackgroundColor=none;fontColor=default;fontStyle=1" parent="1" source="mepEjF3Km3tL2axybcSp-648" target="mepEjF3Km3tL2axybcSp-650" edge="1">
          <mxGeometry width="50" height="50" relative="1" as="geometry">
            <mxPoint x="7733.16" y="-1455.32" as="sourcePoint" />
            <mxPoint x="7783.16" y="-1505.32" as="targetPoint" />
          </mxGeometry>
        </mxCell>
        <mxCell id="mepEjF3Km3tL2axybcSp-652" value="" style="endArrow=classic;html=1;rounded=0;exitX=1;exitY=0.5;exitDx=0;exitDy=0;entryX=0;entryY=0.5;entryDx=0;entryDy=0;labelBackgroundColor=none;fontColor=default;fontStyle=1" parent="1" source="mepEjF3Km3tL2axybcSp-642" target="mepEjF3Km3tL2axybcSp-648" edge="1">
          <mxGeometry width="50" height="50" relative="1" as="geometry">
            <mxPoint x="7733.16" y="-1455.32" as="sourcePoint" />
            <mxPoint x="7783.16" y="-1505.32" as="targetPoint" />
          </mxGeometry>
        </mxCell>
        <mxCell id="mepEjF3Km3tL2axybcSp-653" value="Sim" style="text;html=1;align=center;verticalAlign=middle;resizable=0;points=[];autosize=1;strokeColor=none;fillColor=none;rounded=0;labelBackgroundColor=none;fontStyle=1" parent="1" vertex="1">
          <mxGeometry x="7795.16" y="-1507.32" width="40" height="30" as="geometry" />
        </mxCell>
        <mxCell id="mepEjF3Km3tL2axybcSp-655" value="Não" style="text;html=1;align=center;verticalAlign=middle;resizable=0;points=[];autosize=1;strokeColor=none;fillColor=none;rounded=0;labelBackgroundColor=none;fontStyle=1" parent="1" vertex="1">
          <mxGeometry x="7730.16" y="-1571.32" width="50" height="30" as="geometry" />
        </mxCell>
        <mxCell id="Tq2M9Iyucr7lJhH_iC7z-129" value="" style="edgeStyle=orthogonalEdgeStyle;rounded=0;orthogonalLoop=1;jettySize=auto;html=1;" parent="1" source="mepEjF3Km3tL2axybcSp-656" target="mepEjF3Km3tL2axybcSp-660" edge="1">
          <mxGeometry relative="1" as="geometry" />
        </mxCell>
        <mxCell id="mepEjF3Km3tL2axybcSp-656" value="&quot;Opção inválida, tente novamente&quot;" style="shape=document;whiteSpace=wrap;html=1;boundedLbl=1;rounded=0;labelBackgroundColor=none;fontStyle=1" parent="1" vertex="1">
          <mxGeometry x="7942.66" y="-1581.32" width="120" height="80" as="geometry" />
        </mxCell>
        <mxCell id="mepEjF3Km3tL2axybcSp-657" value="" style="endArrow=classic;html=1;rounded=0;exitX=1;exitY=0.5;exitDx=0;exitDy=0;entryX=0;entryY=0.5;entryDx=0;entryDy=0;labelBackgroundColor=none;fontColor=default;fontStyle=1" parent="1" source="mepEjF3Km3tL2axybcSp-648" target="mepEjF3Km3tL2axybcSp-656" edge="1">
          <mxGeometry width="50" height="50" relative="1" as="geometry">
            <mxPoint x="8053.16" y="-1455.32" as="sourcePoint" />
            <mxPoint x="8103.16" y="-1505.32" as="targetPoint" />
          </mxGeometry>
        </mxCell>
        <mxCell id="mepEjF3Km3tL2axybcSp-658" value="Não" style="text;html=1;align=center;verticalAlign=middle;resizable=0;points=[];autosize=1;strokeColor=none;fillColor=none;rounded=0;labelBackgroundColor=none;fontStyle=1" parent="1" vertex="1">
          <mxGeometry x="7857.66" y="-1571.32" width="50" height="30" as="geometry" />
        </mxCell>
        <mxCell id="mepEjF3Km3tL2axybcSp-660" value="menu()" style="rounded=0;whiteSpace=wrap;html=1;labelBackgroundColor=none;fontStyle=1" parent="1" vertex="1">
          <mxGeometry x="7972.66" y="-1309.9999999999998" width="60" height="41.32" as="geometry" />
        </mxCell>
        <mxCell id="mepEjF3Km3tL2axybcSp-664" value="USER_AMOUNT = 1" style="rounded=0;whiteSpace=wrap;html=1;labelBackgroundColor=none;fontStyle=1" parent="1" vertex="1">
          <mxGeometry x="7080.66" y="-1445.32" width="120" height="60" as="geometry" />
        </mxCell>
        <mxCell id="mepEjF3Km3tL2axybcSp-665" value="" style="endArrow=classic;html=1;rounded=0;exitX=0.5;exitY=1;exitDx=0;exitDy=0;entryX=0.5;entryY=0;entryDx=0;entryDy=0;labelBackgroundColor=none;fontColor=default;fontStyle=1" parent="1" source="mepEjF3Km3tL2axybcSp-664" target="mepEjF3Km3tL2axybcSp-604" edge="1">
          <mxGeometry width="50" height="50" relative="1" as="geometry">
            <mxPoint x="7063.16" y="-1255.32" as="sourcePoint" />
            <mxPoint x="7113.16" y="-1305.32" as="targetPoint" />
          </mxGeometry>
        </mxCell>
        <mxCell id="mepEjF3Km3tL2axybcSp-666" value="Início&lt;div&gt;validation()&lt;/div&gt;" style="ellipse;whiteSpace=wrap;html=1;rounded=0;labelBackgroundColor=none;fontStyle=1" parent="1" vertex="1">
          <mxGeometry x="5179.749999999999" y="-497.82" width="120" height="80" as="geometry" />
        </mxCell>
        <mxCell id="mepEjF3Km3tL2axybcSp-667" value="" style="endArrow=classic;html=1;rounded=0;exitX=1;exitY=0.5;exitDx=0;exitDy=0;entryX=0;entryY=0.5;entryDx=0;entryDy=0;labelBackgroundColor=none;fontColor=default;fontStyle=1" parent="1" source="mepEjF3Km3tL2axybcSp-666" target="mepEjF3Km3tL2axybcSp-668" edge="1">
          <mxGeometry width="50" height="50" relative="1" as="geometry">
            <mxPoint x="5789.629999999999" y="-310" as="sourcePoint" />
            <mxPoint x="5519.629999999999" y="-220" as="targetPoint" />
          </mxGeometry>
        </mxCell>
        <mxCell id="ty1z_cMRj-_MPsmsl8Fz-2" style="edgeStyle=orthogonalEdgeStyle;rounded=0;orthogonalLoop=1;jettySize=auto;html=1;entryX=0.5;entryY=0;entryDx=0;entryDy=0;" parent="1" source="mepEjF3Km3tL2axybcSp-668" target="mepEjF3Km3tL2axybcSp-669" edge="1">
          <mxGeometry relative="1" as="geometry" />
        </mxCell>
        <mxCell id="mepEjF3Km3tL2axybcSp-668" value="v" style="shape=manualInput;whiteSpace=wrap;html=1;rounded=0;labelBackgroundColor=none;fontStyle=1" parent="1" vertex="1">
          <mxGeometry x="5379.75" y="-483.32" width="80" height="50" as="geometry" />
        </mxCell>
        <mxCell id="mepEjF3Km3tL2axybcSp-669" value="v == 0 OR v ==1" style="rhombus;whiteSpace=wrap;html=1;rounded=0;labelBackgroundColor=none;fontStyle=1" parent="1" vertex="1">
          <mxGeometry x="5371.08" y="-401.17" width="97.67" height="97.67" as="geometry" />
        </mxCell>
        <mxCell id="mepEjF3Km3tL2axybcSp-672" value="" style="endArrow=classic;html=1;rounded=0;exitX=0;exitY=0.5;exitDx=0;exitDy=0;entryX=1;entryY=0.5;entryDx=0;entryDy=0;labelBackgroundColor=none;fontColor=default;fontStyle=1" parent="1" source="mepEjF3Km3tL2axybcSp-669" target="mepEjF3Km3tL2axybcSp-679" edge="1">
          <mxGeometry width="50" height="50" relative="1" as="geometry">
            <mxPoint x="5462.879999999999" y="-140.00000000000023" as="sourcePoint" />
            <mxPoint x="5471.379999999999" y="-342.34000000000015" as="targetPoint" />
          </mxGeometry>
        </mxCell>
        <mxCell id="ty1z_cMRj-_MPsmsl8Fz-5" style="edgeStyle=orthogonalEdgeStyle;rounded=0;orthogonalLoop=1;jettySize=auto;html=1;entryX=1;entryY=0.5;entryDx=0;entryDy=0;" parent="1" source="mepEjF3Km3tL2axybcSp-676" target="mepEjF3Km3tL2axybcSp-668" edge="1">
          <mxGeometry relative="1" as="geometry">
            <Array as="points">
              <mxPoint x="5590" y="-458" />
            </Array>
          </mxGeometry>
        </mxCell>
        <mxCell id="mepEjF3Km3tL2axybcSp-676" value="&quot;Número inválido, tente novamente&quot;" style="shape=document;whiteSpace=wrap;html=1;boundedLbl=1;rounded=0;labelBackgroundColor=none;fontStyle=1" parent="1" vertex="1">
          <mxGeometry x="5527.249999999999" y="-392.34000000000015" width="120" height="80" as="geometry" />
        </mxCell>
        <mxCell id="mepEjF3Km3tL2axybcSp-677" value="" style="endArrow=classic;html=1;rounded=0;exitX=1;exitY=0.5;exitDx=0;exitDy=0;entryX=0;entryY=0.5;entryDx=0;entryDy=0;labelBackgroundColor=none;fontColor=default;fontStyle=1" parent="1" source="mepEjF3Km3tL2axybcSp-669" target="mepEjF3Km3tL2axybcSp-676" edge="1">
          <mxGeometry width="50" height="50" relative="1" as="geometry">
            <mxPoint x="5922.879999999999" y="-150.00000000000023" as="sourcePoint" />
            <mxPoint x="5972.879999999999" y="-200" as="targetPoint" />
          </mxGeometry>
        </mxCell>
        <mxCell id="ty1z_cMRj-_MPsmsl8Fz-3" style="edgeStyle=orthogonalEdgeStyle;rounded=0;orthogonalLoop=1;jettySize=auto;html=1;entryX=0.5;entryY=0;entryDx=0;entryDy=0;" parent="1" source="mepEjF3Km3tL2axybcSp-679" target="mepEjF3Km3tL2axybcSp-686" edge="1">
          <mxGeometry relative="1" as="geometry" />
        </mxCell>
        <mxCell id="mepEjF3Km3tL2axybcSp-679" value="return v" style="rounded=0;whiteSpace=wrap;html=1;labelBackgroundColor=none;fontStyle=1" parent="1" vertex="1">
          <mxGeometry x="5199.999999999999" y="-382.34000000000015" width="120" height="60" as="geometry" />
        </mxCell>
        <mxCell id="mepEjF3Km3tL2axybcSp-682" value="Fim&lt;div&gt;operations()&lt;/div&gt;" style="ellipse;whiteSpace=wrap;html=1;rounded=0;labelBackgroundColor=none;fontStyle=1" parent="1" vertex="1">
          <mxGeometry x="8110" y="-1312.34" width="89.5" height="46" as="geometry" />
        </mxCell>
        <mxCell id="mepEjF3Km3tL2axybcSp-683" value="Fim&lt;div&gt;multiple_users()&lt;/div&gt;" style="ellipse;whiteSpace=wrap;html=1;rounded=0;labelBackgroundColor=none;fontStyle=1" parent="1" vertex="1">
          <mxGeometry x="5883.25" y="-1018.4300000000001" width="120" height="80" as="geometry" />
        </mxCell>
        <mxCell id="mepEjF3Km3tL2axybcSp-684" value="" style="endArrow=classic;html=1;rounded=0;exitX=1;exitY=0.5;exitDx=0;exitDy=0;entryX=0;entryY=0.5;entryDx=0;entryDy=0;labelBackgroundColor=none;fontColor=default;fontStyle=1" parent="1" source="mepEjF3Km3tL2axybcSp-628" target="mepEjF3Km3tL2axybcSp-683" edge="1">
          <mxGeometry width="50" height="50" relative="1" as="geometry">
            <mxPoint x="5747.75" y="-1141.6399999999999" as="sourcePoint" />
            <mxPoint x="5797.75" y="-1151.6399999999999" as="targetPoint" />
          </mxGeometry>
        </mxCell>
        <mxCell id="mepEjF3Km3tL2axybcSp-686" value="Fim&lt;div&gt;validation()&lt;/div&gt;" style="ellipse;whiteSpace=wrap;html=1;rounded=0;labelBackgroundColor=none;fontStyle=1" parent="1" vertex="1">
          <mxGeometry x="5199.999999999999" y="-274.67000000000013" width="120" height="80" as="geometry" />
        </mxCell>
        <mxCell id="Tq2M9Iyucr7lJhH_iC7z-122" style="edgeStyle=orthogonalEdgeStyle;rounded=0;orthogonalLoop=1;jettySize=auto;html=1;entryX=0.5;entryY=0;entryDx=0;entryDy=0;fontStyle=1" parent="1" source="mepEjF3Km3tL2axybcSp-710" target="mepEjF3Km3tL2axybcSp-302" edge="1">
          <mxGeometry relative="1" as="geometry" />
        </mxCell>
        <mxCell id="mepEjF3Km3tL2axybcSp-710" value="&lt;span&gt;validation() == 0&lt;/span&gt;" style="rhombus;whiteSpace=wrap;html=1;rounded=0;labelBackgroundColor=none;fontStyle=1" parent="1" vertex="1">
          <mxGeometry x="6528.16" y="-937.7699999999998" width="114.34" height="114.34" as="geometry" />
        </mxCell>
        <mxCell id="mepEjF3Km3tL2axybcSp-711" value="&lt;span&gt;Sim&lt;/span&gt;" style="text;html=1;align=center;verticalAlign=middle;whiteSpace=wrap;rounded=0;labelBackgroundColor=none;fontStyle=1" parent="1" vertex="1">
          <mxGeometry x="6476.83" y="-878.68" width="60" height="30" as="geometry" />
        </mxCell>
        <mxCell id="mepEjF3Km3tL2axybcSp-713" value="Não" style="text;html=1;align=center;verticalAlign=middle;resizable=0;points=[];autosize=1;strokeColor=none;fillColor=none;rounded=0;labelBackgroundColor=none;fontStyle=1" parent="1" vertex="1">
          <mxGeometry x="6642.5" y="-874.3199999999999" width="50" height="30" as="geometry" />
        </mxCell>
        <mxCell id="Tq2M9Iyucr7lJhH_iC7z-143" value="" style="edgeStyle=orthogonalEdgeStyle;rounded=0;orthogonalLoop=1;jettySize=auto;html=1;" parent="1" source="mepEjF3Km3tL2axybcSp-714" target="mepEjF3Km3tL2axybcSp-715" edge="1">
          <mxGeometry relative="1" as="geometry" />
        </mxCell>
        <mxCell id="mepEjF3Km3tL2axybcSp-714" value="validation()" style="rounded=0;whiteSpace=wrap;html=1;labelBackgroundColor=none;fontStyle=1" parent="1" vertex="1">
          <mxGeometry x="6842.33" y="-692.6399999999999" width="78" height="41.32" as="geometry" />
        </mxCell>
        <mxCell id="Tq2M9Iyucr7lJhH_iC7z-142" style="edgeStyle=orthogonalEdgeStyle;rounded=0;orthogonalLoop=1;jettySize=auto;html=1;entryX=0.5;entryY=0;entryDx=0;entryDy=0;" parent="1" source="mepEjF3Km3tL2axybcSp-715" target="mepEjF3Km3tL2axybcSp-305" edge="1">
          <mxGeometry relative="1" as="geometry" />
        </mxCell>
        <mxCell id="Tq2M9Iyucr7lJhH_iC7z-168" value="" style="edgeStyle=orthogonalEdgeStyle;rounded=0;orthogonalLoop=1;jettySize=auto;html=1;" parent="1" source="mepEjF3Km3tL2axybcSp-715" edge="1">
          <mxGeometry relative="1" as="geometry">
            <mxPoint x="6881" y="-880" as="targetPoint" />
          </mxGeometry>
        </mxCell>
        <mxCell id="mepEjF3Km3tL2axybcSp-715" value="validation() == 0" style="rhombus;whiteSpace=wrap;html=1;rounded=0;labelBackgroundColor=none;fontStyle=1" parent="1" vertex="1">
          <mxGeometry x="6824.16" y="-834.6600000000002" width="114.34" height="114.34" as="geometry" />
        </mxCell>
        <mxCell id="mepEjF3Km3tL2axybcSp-716" value="Sim" style="text;html=1;align=center;verticalAlign=middle;whiteSpace=wrap;rounded=0;labelBackgroundColor=none;fontStyle=1" parent="1" vertex="1">
          <mxGeometry x="6761.83" y="-772.8199999999998" width="60" height="30" as="geometry" />
        </mxCell>
        <mxCell id="mepEjF3Km3tL2axybcSp-718" value="Não" style="text;html=1;align=center;verticalAlign=middle;resizable=0;points=[];autosize=1;strokeColor=none;fillColor=none;rounded=0;labelBackgroundColor=none;fontStyle=1" parent="1" vertex="1">
          <mxGeometry x="6888.5" y="-853.4300000000002" width="50" height="30" as="geometry" />
        </mxCell>
        <mxCell id="Tq2M9Iyucr7lJhH_iC7z-148" value="" style="edgeStyle=orthogonalEdgeStyle;rounded=0;orthogonalLoop=1;jettySize=auto;html=1;" parent="1" source="mepEjF3Km3tL2axybcSp-721" target="mepEjF3Km3tL2axybcSp-722" edge="1">
          <mxGeometry relative="1" as="geometry" />
        </mxCell>
        <mxCell id="mepEjF3Km3tL2axybcSp-721" value="validation()" style="rounded=0;whiteSpace=wrap;html=1;labelBackgroundColor=none;fontStyle=1" parent="1" vertex="1">
          <mxGeometry x="7324.83" y="-796.26" width="120" height="60" as="geometry" />
        </mxCell>
        <mxCell id="Tq2M9Iyucr7lJhH_iC7z-147" style="edgeStyle=orthogonalEdgeStyle;rounded=0;orthogonalLoop=1;jettySize=auto;html=1;entryX=0.5;entryY=0;entryDx=0;entryDy=0;" parent="1" source="mepEjF3Km3tL2axybcSp-722" target="mepEjF3Km3tL2axybcSp-309" edge="1">
          <mxGeometry relative="1" as="geometry" />
        </mxCell>
        <mxCell id="mepEjF3Km3tL2axybcSp-722" value="validation() == 0" style="rhombus;whiteSpace=wrap;html=1;rounded=0;labelBackgroundColor=none;fontStyle=1" parent="1" vertex="1">
          <mxGeometry x="7170.49" y="-823.43" width="114.34" height="114.34" as="geometry" />
        </mxCell>
        <mxCell id="mepEjF3Km3tL2axybcSp-723" value="Sim" style="text;html=1;align=center;verticalAlign=middle;whiteSpace=wrap;rounded=0;labelBackgroundColor=none;fontStyle=1" parent="1" vertex="1">
          <mxGeometry x="7181.83" y="-707.3199999999999" width="60" height="30" as="geometry" />
        </mxCell>
        <mxCell id="mepEjF3Km3tL2axybcSp-725" value="Não" style="text;html=1;align=center;verticalAlign=middle;resizable=0;points=[];autosize=1;strokeColor=none;fillColor=none;rounded=0;labelBackgroundColor=none;fontStyle=1" parent="1" vertex="1">
          <mxGeometry x="7120.49" y="-796.2599999999998" width="50" height="30" as="geometry" />
        </mxCell>
        <mxCell id="mepEjF3Km3tL2axybcSp-727" value="validation()" style="rounded=0;whiteSpace=wrap;html=1;labelBackgroundColor=none;fontStyle=1" parent="1" vertex="1">
          <mxGeometry x="6794.58" y="137.15999999999983" width="120" height="60" as="geometry" />
        </mxCell>
        <mxCell id="Tq2M9Iyucr7lJhH_iC7z-23" style="edgeStyle=orthogonalEdgeStyle;rounded=0;orthogonalLoop=1;jettySize=auto;html=1;entryX=0;entryY=0.5;entryDx=0;entryDy=0;labelBackgroundColor=none;fontColor=default;fontStyle=1" parent="1" source="mepEjF3Km3tL2axybcSp-728" target="mepEjF3Km3tL2axybcSp-430" edge="1">
          <mxGeometry relative="1" as="geometry" />
        </mxCell>
        <mxCell id="mepEjF3Km3tL2axybcSp-728" value="validation() == 0" style="rhombus;whiteSpace=wrap;html=1;rounded=0;labelBackgroundColor=none;fontStyle=1" parent="1" vertex="1">
          <mxGeometry x="6798.74" y="-20.00000000000003" width="114.34" height="114.34" as="geometry" />
        </mxCell>
        <mxCell id="mepEjF3Km3tL2axybcSp-729" value="Sim" style="text;html=1;align=center;verticalAlign=middle;whiteSpace=wrap;rounded=0;labelBackgroundColor=none;fontStyle=1" parent="1" vertex="1">
          <mxGeometry x="6739.08" y="10.840000000000117" width="60" height="30" as="geometry" />
        </mxCell>
        <mxCell id="mepEjF3Km3tL2axybcSp-730" value="" style="endArrow=classic;html=1;rounded=0;exitX=0.5;exitY=0;exitDx=0;exitDy=0;entryX=0.5;entryY=1;entryDx=0;entryDy=0;labelBackgroundColor=none;fontColor=default;fontStyle=1" parent="1" source="mepEjF3Km3tL2axybcSp-727" target="mepEjF3Km3tL2axybcSp-728" edge="1">
          <mxGeometry width="50" height="50" relative="1" as="geometry">
            <mxPoint x="6759.58" y="192.17000000000004" as="sourcePoint" />
            <mxPoint x="6809.58" y="142.17000000000004" as="targetPoint" />
          </mxGeometry>
        </mxCell>
        <mxCell id="mepEjF3Km3tL2axybcSp-731" value="Não" style="text;html=1;align=center;verticalAlign=middle;resizable=0;points=[];autosize=1;strokeColor=none;fillColor=none;rounded=0;labelBackgroundColor=none;fontStyle=1" parent="1" vertex="1">
          <mxGeometry x="6911.960000000001" y="10.840000000000117" width="50" height="30" as="geometry" />
        </mxCell>
        <mxCell id="mepEjF3Km3tL2axybcSp-740" value="validation()" style="rounded=0;whiteSpace=wrap;html=1;labelBackgroundColor=none;fontStyle=1" parent="1" vertex="1">
          <mxGeometry x="6432.63" y="963.46" width="120" height="34.68" as="geometry" />
        </mxCell>
        <mxCell id="Tq2M9Iyucr7lJhH_iC7z-40" style="edgeStyle=orthogonalEdgeStyle;rounded=0;orthogonalLoop=1;jettySize=auto;html=1;entryX=0.5;entryY=0;entryDx=0;entryDy=0;labelBackgroundColor=none;fontColor=default;fontStyle=1" parent="1" source="mepEjF3Km3tL2axybcSp-741" target="mepEjF3Km3tL2axybcSp-435" edge="1">
          <mxGeometry relative="1" as="geometry" />
        </mxCell>
        <mxCell id="Tq2M9Iyucr7lJhH_iC7z-43" value="" style="edgeStyle=orthogonalEdgeStyle;rounded=0;orthogonalLoop=1;jettySize=auto;html=1;labelBackgroundColor=none;fontColor=default;fontStyle=1" parent="1" source="mepEjF3Km3tL2axybcSp-741" target="mepEjF3Km3tL2axybcSp-874" edge="1">
          <mxGeometry relative="1" as="geometry" />
        </mxCell>
        <mxCell id="mepEjF3Km3tL2axybcSp-741" value="validation() == 0" style="rhombus;whiteSpace=wrap;html=1;rounded=0;labelBackgroundColor=none;fontStyle=1" parent="1" vertex="1">
          <mxGeometry x="6438.99" y="830" width="107.29" height="107.29" as="geometry" />
        </mxCell>
        <mxCell id="mepEjF3Km3tL2axybcSp-742" value="" style="endArrow=classic;html=1;rounded=0;exitX=0.5;exitY=0;exitDx=0;exitDy=0;entryX=0.5;entryY=1;entryDx=0;entryDy=0;labelBackgroundColor=none;fontColor=default;fontStyle=1" parent="1" source="mepEjF3Km3tL2axybcSp-740" target="mepEjF3Km3tL2axybcSp-741" edge="1">
          <mxGeometry width="50" height="50" relative="1" as="geometry">
            <mxPoint x="6488.8" y="672.97" as="sourcePoint" />
            <mxPoint x="6538.8" y="622.97" as="targetPoint" />
          </mxGeometry>
        </mxCell>
        <mxCell id="mepEjF3Km3tL2axybcSp-763" value="validation()" style="rounded=0;whiteSpace=wrap;html=1;labelBackgroundColor=none;fontStyle=1" parent="1" vertex="1">
          <mxGeometry x="6383.8" y="1198.29" width="120" height="60" as="geometry" />
        </mxCell>
        <mxCell id="Tq2M9Iyucr7lJhH_iC7z-64" value="" style="edgeStyle=orthogonalEdgeStyle;rounded=0;orthogonalLoop=1;jettySize=auto;html=1;fontStyle=1" parent="1" source="mepEjF3Km3tL2axybcSp-764" target="mepEjF3Km3tL2axybcSp-884" edge="1">
          <mxGeometry relative="1" as="geometry" />
        </mxCell>
        <mxCell id="Tq2M9Iyucr7lJhH_iC7z-65" value="" style="edgeStyle=orthogonalEdgeStyle;rounded=0;orthogonalLoop=1;jettySize=auto;html=1;fontStyle=1" parent="1" source="mepEjF3Km3tL2axybcSp-764" target="mepEjF3Km3tL2axybcSp-463" edge="1">
          <mxGeometry relative="1" as="geometry" />
        </mxCell>
        <mxCell id="mepEjF3Km3tL2axybcSp-764" value="validation() == 0" style="rhombus;whiteSpace=wrap;html=1;rounded=0;labelBackgroundColor=none;fontStyle=1" parent="1" vertex="1">
          <mxGeometry x="6386.63" y="1021.1199999999999" width="114.34" height="114.34" as="geometry" />
        </mxCell>
        <mxCell id="mepEjF3Km3tL2axybcSp-765" value="" style="endArrow=classic;html=1;rounded=0;exitX=0.5;exitY=0;exitDx=0;exitDy=0;entryX=0.5;entryY=1;entryDx=0;entryDy=0;labelBackgroundColor=none;fontColor=default;fontStyle=1" parent="1" source="mepEjF3Km3tL2axybcSp-763" target="mepEjF3Km3tL2axybcSp-764" edge="1">
          <mxGeometry width="50" height="50" relative="1" as="geometry">
            <mxPoint x="7792.39" y="838.8" as="sourcePoint" />
            <mxPoint x="7842.39" y="788.8" as="targetPoint" />
          </mxGeometry>
        </mxCell>
        <mxCell id="mepEjF3Km3tL2axybcSp-769" value="Sim" style="text;html=1;align=center;verticalAlign=middle;resizable=0;points=[];autosize=1;strokeColor=none;fillColor=none;rounded=0;labelBackgroundColor=none;fontStyle=1" parent="1" vertex="1">
          <mxGeometry x="6340.3" y="1088.29" width="40" height="30" as="geometry" />
        </mxCell>
        <mxCell id="Tq2M9Iyucr7lJhH_iC7z-95" value="" style="edgeStyle=orthogonalEdgeStyle;rounded=0;orthogonalLoop=1;jettySize=auto;html=1;fontStyle=1" parent="1" source="mepEjF3Km3tL2axybcSp-772" target="mepEjF3Km3tL2axybcSp-773" edge="1">
          <mxGeometry relative="1" as="geometry" />
        </mxCell>
        <mxCell id="mepEjF3Km3tL2axybcSp-772" value="validation()" style="rounded=0;whiteSpace=wrap;html=1;labelBackgroundColor=none;fontStyle=1" parent="1" vertex="1">
          <mxGeometry x="6668.38" y="1588.29" width="87.33" height="30" as="geometry" />
        </mxCell>
        <mxCell id="Tq2M9Iyucr7lJhH_iC7z-111" style="edgeStyle=orthogonalEdgeStyle;rounded=0;orthogonalLoop=1;jettySize=auto;html=1;fontStyle=1" parent="1" source="mepEjF3Km3tL2axybcSp-773" target="mepEjF3Km3tL2axybcSp-509" edge="1">
          <mxGeometry relative="1" as="geometry" />
        </mxCell>
        <mxCell id="Tq2M9Iyucr7lJhH_iC7z-119" style="edgeStyle=orthogonalEdgeStyle;rounded=0;orthogonalLoop=1;jettySize=auto;html=1;fontStyle=1" parent="1" source="mepEjF3Km3tL2axybcSp-773" edge="1">
          <mxGeometry relative="1" as="geometry">
            <mxPoint x="7043.8" y="1678.29" as="targetPoint" />
          </mxGeometry>
        </mxCell>
        <mxCell id="mepEjF3Km3tL2axybcSp-773" value="validation() == 0" style="rhombus;whiteSpace=wrap;html=1;rounded=0;labelBackgroundColor=none;fontStyle=1" parent="1" vertex="1">
          <mxGeometry x="6654.04" y="1658.29" width="114.34" height="114.34" as="geometry" />
        </mxCell>
        <mxCell id="mepEjF3Km3tL2axybcSp-776" value="Sim" style="text;html=1;align=center;verticalAlign=middle;resizable=0;points=[];autosize=1;strokeColor=none;fillColor=none;rounded=0;labelBackgroundColor=none;fontStyle=1" parent="1" vertex="1">
          <mxGeometry x="6614.04" y="1684.63" width="40" height="30" as="geometry" />
        </mxCell>
        <mxCell id="mepEjF3Km3tL2axybcSp-777" value="Não" style="text;html=1;align=center;verticalAlign=middle;resizable=0;points=[];autosize=1;strokeColor=none;fillColor=none;rounded=0;labelBackgroundColor=none;fontStyle=1" parent="1" vertex="1">
          <mxGeometry x="6768.38" y="1684.63" width="50" height="30" as="geometry" />
        </mxCell>
        <mxCell id="Tq2M9Iyucr7lJhH_iC7z-10" style="edgeStyle=orthogonalEdgeStyle;rounded=0;orthogonalLoop=1;jettySize=auto;html=1;entryX=0.5;entryY=0;entryDx=0;entryDy=0;labelBackgroundColor=none;fontColor=default;fontStyle=1" parent="1" source="mepEjF3Km3tL2axybcSp-778" target="mepEjF3Km3tL2axybcSp-782" edge="1">
          <mxGeometry relative="1" as="geometry" />
        </mxCell>
        <mxCell id="mepEjF3Km3tL2axybcSp-778" value="Início&lt;div&gt;remove_user()&lt;/div&gt;" style="ellipse;whiteSpace=wrap;html=1;rounded=0;labelBackgroundColor=none;fontStyle=1" parent="1" vertex="1">
          <mxGeometry x="5132.25" y="57.16999999999962" width="120" height="80" as="geometry" />
        </mxCell>
        <mxCell id="Tq2M9Iyucr7lJhH_iC7z-8" style="edgeStyle=orthogonalEdgeStyle;rounded=0;orthogonalLoop=1;jettySize=auto;html=1;entryX=0;entryY=0.5;entryDx=0;entryDy=0;labelBackgroundColor=none;fontColor=default;fontStyle=1" parent="1" source="mepEjF3Km3tL2axybcSp-782" target="TousfeBBo66vvZQj1fM5-47" edge="1">
          <mxGeometry relative="1" as="geometry" />
        </mxCell>
        <mxCell id="mepEjF3Km3tL2axybcSp-782" value="&quot;Digite a ID do usuário que deseja remover&quot;" style="shape=document;whiteSpace=wrap;html=1;boundedLbl=1;rounded=0;labelBackgroundColor=none;fontStyle=1" parent="1" vertex="1">
          <mxGeometry x="5132.25" y="281.8899999999999" width="120" height="80" as="geometry" />
        </mxCell>
        <mxCell id="mepEjF3Km3tL2axybcSp-848" value="" style="endArrow=classic;html=1;rounded=0;exitX=1;exitY=0.5;exitDx=0;exitDy=0;entryX=0;entryY=0.5;entryDx=0;entryDy=0;labelBackgroundColor=none;fontColor=default;fontStyle=1" parent="1" source="mepEjF3Km3tL2axybcSp-399" target="mepEjF3Km3tL2axybcSp-400" edge="1">
          <mxGeometry width="50" height="50" relative="1" as="geometry">
            <mxPoint x="6454.08" y="392.1700000000001" as="sourcePoint" />
            <mxPoint x="6324.08" y="430.1699999999996" as="targetPoint" />
          </mxGeometry>
        </mxCell>
        <mxCell id="mepEjF3Km3tL2axybcSp-864" value="" style="endArrow=classic;html=1;rounded=0;exitX=1;exitY=0.5;exitDx=0;exitDy=0;entryX=0;entryY=0.5;entryDx=0;entryDy=0;labelBackgroundColor=none;fontColor=default;fontStyle=1" parent="1" target="mepEjF3Km3tL2axybcSp-292" edge="1">
          <mxGeometry width="50" height="50" relative="1" as="geometry">
            <mxPoint x="5988" y="-1419.9899999999998" as="sourcePoint" />
            <mxPoint x="5987" y="-1330.6399999999999" as="targetPoint" />
          </mxGeometry>
        </mxCell>
        <mxCell id="Tq2M9Iyucr7lJhH_iC7z-1" style="edgeStyle=orthogonalEdgeStyle;rounded=0;orthogonalLoop=1;jettySize=auto;html=1;entryX=0.5;entryY=0;entryDx=0;entryDy=0;labelBackgroundColor=none;fontColor=default;fontStyle=1" parent="1" source="mepEjF3Km3tL2axybcSp-865" target="TousfeBBo66vvZQj1fM5-81" edge="1">
          <mxGeometry relative="1" as="geometry" />
        </mxCell>
        <mxCell id="mepEjF3Km3tL2axybcSp-865" value="&lt;div&gt;GLOBAIS&lt;/div&gt;int ID;&lt;div&gt;char USERDATA[140];&lt;/div&gt;&lt;div&gt;int USER_AMOUNT;&lt;/div&gt;&lt;div&gt;char NEW_NAME[100];&lt;/div&gt;&lt;div&gt;int NEW_AGE;&lt;/div&gt;&lt;div&gt;float NEW_BALANCE;&lt;/div&gt;" style="shape=parallelogram;perimeter=parallelogramPerimeter;whiteSpace=wrap;html=1;fixedSize=1;rounded=0;labelBackgroundColor=none;fontStyle=1" parent="1" vertex="1">
          <mxGeometry x="5339.25" y="-1926.9" width="249.5" height="111.16" as="geometry" />
        </mxCell>
        <mxCell id="mepEjF3Km3tL2axybcSp-868" value="Fim&lt;div&gt;find_user()&lt;/div&gt;" style="ellipse;whiteSpace=wrap;html=1;rounded=0;labelBackgroundColor=none;fontStyle=1" parent="1" vertex="1">
          <mxGeometry x="7278.58" y="-2.5100000000002467" width="120" height="80" as="geometry" />
        </mxCell>
        <mxCell id="Tq2M9Iyucr7lJhH_iC7z-41" value="" style="edgeStyle=orthogonalEdgeStyle;rounded=0;orthogonalLoop=1;jettySize=auto;html=1;labelBackgroundColor=none;fontColor=default;fontStyle=1" parent="1" source="mepEjF3Km3tL2axybcSp-870" target="mepEjF3Km3tL2axybcSp-461" edge="1">
          <mxGeometry relative="1" as="geometry" />
        </mxCell>
        <mxCell id="mepEjF3Km3tL2axybcSp-870" value="find_user()" style="rounded=0;whiteSpace=wrap;html=1;labelBackgroundColor=none;fontStyle=1" parent="1" vertex="1">
          <mxGeometry x="6135.38" y="962.29" width="120" height="37.66" as="geometry" />
        </mxCell>
        <mxCell id="Tq2M9Iyucr7lJhH_iC7z-49" value="" style="edgeStyle=orthogonalEdgeStyle;rounded=0;orthogonalLoop=1;jettySize=auto;html=1;labelBackgroundColor=none;fontColor=default;fontStyle=1" parent="1" source="mepEjF3Km3tL2axybcSp-874" target="mepEjF3Km3tL2axybcSp-875" edge="1">
          <mxGeometry relative="1" as="geometry" />
        </mxCell>
        <mxCell id="mepEjF3Km3tL2axybcSp-874" value="userdata1 = USERDATA" style="rounded=0;whiteSpace=wrap;html=1;labelBackgroundColor=none;fontStyle=1" parent="1" vertex="1">
          <mxGeometry x="6606.79" y="864.7299999999998" width="91.17" height="37.83" as="geometry" />
        </mxCell>
        <mxCell id="Tq2M9Iyucr7lJhH_iC7z-50" value="" style="edgeStyle=orthogonalEdgeStyle;rounded=0;orthogonalLoop=1;jettySize=auto;html=1;labelBackgroundColor=none;fontColor=default;fontStyle=1" parent="1" source="mepEjF3Km3tL2axybcSp-875" target="mepEjF3Km3tL2axybcSp-463" edge="1">
          <mxGeometry relative="1" as="geometry" />
        </mxCell>
        <mxCell id="mepEjF3Km3tL2axybcSp-875" value="id1= ID" style="rounded=0;whiteSpace=wrap;html=1;labelBackgroundColor=none;fontStyle=1" parent="1" vertex="1">
          <mxGeometry x="6612.63" y="978.29" width="81.17" height="35" as="geometry" />
        </mxCell>
        <mxCell id="Tq2M9Iyucr7lJhH_iC7z-62" value="" style="edgeStyle=orthogonalEdgeStyle;rounded=0;orthogonalLoop=1;jettySize=auto;html=1;fontStyle=1" parent="1" source="mepEjF3Km3tL2axybcSp-878" target="mepEjF3Km3tL2axybcSp-489" edge="1">
          <mxGeometry relative="1" as="geometry" />
        </mxCell>
        <mxCell id="mepEjF3Km3tL2axybcSp-878" value="find_user()" style="rounded=0;whiteSpace=wrap;html=1;labelBackgroundColor=none;fontStyle=1" parent="1" vertex="1">
          <mxGeometry x="6593.8" y="1158.29" width="120" height="60" as="geometry" />
        </mxCell>
        <mxCell id="Tq2M9Iyucr7lJhH_iC7z-77" value="" style="edgeStyle=orthogonalEdgeStyle;rounded=0;orthogonalLoop=1;jettySize=auto;html=1;fontStyle=1" parent="1" source="mepEjF3Km3tL2axybcSp-884" target="mepEjF3Km3tL2axybcSp-886" edge="1">
          <mxGeometry relative="1" as="geometry" />
        </mxCell>
        <mxCell id="mepEjF3Km3tL2axybcSp-884" value="id2 = ID" style="rounded=0;whiteSpace=wrap;html=1;labelBackgroundColor=none;fontStyle=1" parent="1" vertex="1">
          <mxGeometry x="6202.97" y="1048.29" width="120" height="60" as="geometry" />
        </mxCell>
        <mxCell id="Tq2M9Iyucr7lJhH_iC7z-67" value="" style="edgeStyle=orthogonalEdgeStyle;rounded=0;orthogonalLoop=1;jettySize=auto;html=1;fontStyle=1" parent="1" source="mepEjF3Km3tL2axybcSp-886" target="mepEjF3Km3tL2axybcSp-507" edge="1">
          <mxGeometry relative="1" as="geometry" />
        </mxCell>
        <mxCell id="mepEjF3Km3tL2axybcSp-886" value="userdata2 = USERDATA" style="rounded=0;whiteSpace=wrap;html=1;labelBackgroundColor=none;fontStyle=1" parent="1" vertex="1">
          <mxGeometry x="6042.97" y="1048.97" width="120" height="60" as="geometry" />
        </mxCell>
        <mxCell id="Tq2M9Iyucr7lJhH_iC7z-130" value="" style="edgeStyle=orthogonalEdgeStyle;rounded=0;orthogonalLoop=1;jettySize=auto;html=1;" parent="1" source="TousfeBBo66vvZQj1fM5-1" target="mepEjF3Km3tL2axybcSp-593" edge="1">
          <mxGeometry relative="1" as="geometry" />
        </mxCell>
        <mxCell id="TousfeBBo66vvZQj1fM5-1" value="int op;" style="shape=parallelogram;perimeter=parallelogramPerimeter;whiteSpace=wrap;html=1;fixedSize=1;rounded=0;labelBackgroundColor=none;fontStyle=1" parent="1" vertex="1">
          <mxGeometry x="6972.16" y="-1770" width="80" height="60" as="geometry" />
        </mxCell>
        <mxCell id="TousfeBBo66vvZQj1fM5-44" value="float transfer, balance1, balance2;&lt;div&gt;int id1, id2;&lt;/div&gt;&lt;div&gt;char userdata1[140];&lt;/div&gt;&lt;div&gt;char userdata2[140];&lt;/div&gt;" style="shape=parallelogram;perimeter=parallelogramPerimeter;whiteSpace=wrap;html=1;fixedSize=1;rounded=0;labelBackgroundColor=none;fontStyle=1" parent="1" vertex="1">
          <mxGeometry x="5714.63" y="948.46" width="226" height="65.32" as="geometry" />
        </mxCell>
        <mxCell id="TousfeBBo66vvZQj1fM5-46" value="" style="endArrow=classic;html=1;rounded=0;exitX=1;exitY=0.5;exitDx=0;exitDy=0;entryX=0;entryY=0.5;entryDx=0;entryDy=0;labelBackgroundColor=none;fontColor=default;fontStyle=1" parent="1" source="TousfeBBo66vvZQj1fM5-44" target="mepEjF3Km3tL2axybcSp-435" edge="1">
          <mxGeometry width="50" height="50" relative="1" as="geometry">
            <mxPoint x="5951.55" y="924.1300000000001" as="sourcePoint" />
            <mxPoint x="6001.55" y="874.1300000000001" as="targetPoint" />
          </mxGeometry>
        </mxCell>
        <mxCell id="TousfeBBo66vvZQj1fM5-47" value="find_user()" style="rounded=0;whiteSpace=wrap;html=1;labelBackgroundColor=none;fontStyle=1" parent="1" vertex="1">
          <mxGeometry x="5298.25" y="291.8899999999999" width="120" height="60" as="geometry" />
        </mxCell>
        <mxCell id="TousfeBBo66vvZQj1fM5-49" value="&quot;A conta está correta? \nDigite 0 para sim ou 1 para não&quot;, userdata1" style="shape=document;whiteSpace=wrap;html=1;boundedLbl=1;rounded=0;labelBackgroundColor=none;fontStyle=1" parent="1" vertex="1">
          <mxGeometry x="5461.46" y="281.8899999999999" width="124.67" height="80" as="geometry" />
        </mxCell>
        <mxCell id="TousfeBBo66vvZQj1fM5-50" value="" style="endArrow=classic;html=1;rounded=0;exitX=1;exitY=0.5;exitDx=0;exitDy=0;entryX=0;entryY=0.5;entryDx=0;entryDy=0;labelBackgroundColor=none;fontColor=default;fontStyle=1" parent="1" source="TousfeBBo66vvZQj1fM5-47" target="TousfeBBo66vvZQj1fM5-49" edge="1">
          <mxGeometry width="50" height="50" relative="1" as="geometry">
            <mxPoint x="5713.25" y="484.67999999999984" as="sourcePoint" />
            <mxPoint x="5763.25" y="434.67999999999984" as="targetPoint" />
          </mxGeometry>
        </mxCell>
        <mxCell id="TousfeBBo66vvZQj1fM5-51" value="validation()" style="rounded=0;whiteSpace=wrap;html=1;labelBackgroundColor=none;fontStyle=1" parent="1" vertex="1">
          <mxGeometry x="5463.8" y="190" width="120" height="60" as="geometry" />
        </mxCell>
        <mxCell id="TousfeBBo66vvZQj1fM5-52" value="" style="endArrow=classic;html=1;rounded=0;exitX=0.5;exitY=0;exitDx=0;exitDy=0;entryX=0.5;entryY=1;entryDx=0;entryDy=0;labelBackgroundColor=none;fontColor=default;fontStyle=1" parent="1" source="TousfeBBo66vvZQj1fM5-49" target="TousfeBBo66vvZQj1fM5-51" edge="1">
          <mxGeometry width="50" height="50" relative="1" as="geometry">
            <mxPoint x="5713.25" y="484.67999999999984" as="sourcePoint" />
            <mxPoint x="5763.25" y="434.67999999999984" as="targetPoint" />
          </mxGeometry>
        </mxCell>
        <mxCell id="Tq2M9Iyucr7lJhH_iC7z-9" style="edgeStyle=orthogonalEdgeStyle;rounded=0;orthogonalLoop=1;jettySize=auto;html=1;entryX=0;entryY=0.5;entryDx=0;entryDy=0;labelBackgroundColor=none;fontColor=default;fontStyle=1" parent="1" source="TousfeBBo66vvZQj1fM5-53" target="TousfeBBo66vvZQj1fM5-61" edge="1">
          <mxGeometry relative="1" as="geometry" />
        </mxCell>
        <mxCell id="Tq2M9Iyucr7lJhH_iC7z-11" style="edgeStyle=orthogonalEdgeStyle;rounded=0;orthogonalLoop=1;jettySize=auto;html=1;entryX=1;entryY=0.5;entryDx=0;entryDy=0;labelBackgroundColor=none;fontColor=default;fontStyle=1" parent="1" source="TousfeBBo66vvZQj1fM5-53" target="mepEjF3Km3tL2axybcSp-778" edge="1">
          <mxGeometry relative="1" as="geometry" />
        </mxCell>
        <mxCell id="TousfeBBo66vvZQj1fM5-53" value="validation() == 0" style="rhombus;whiteSpace=wrap;html=1;rounded=0;labelBackgroundColor=none;fontStyle=1" parent="1" vertex="1">
          <mxGeometry x="5473.75" y="40" width="96.81" height="114.34" as="geometry" />
        </mxCell>
        <mxCell id="TousfeBBo66vvZQj1fM5-54" value="" style="endArrow=classic;html=1;rounded=0;exitX=0.5;exitY=0;exitDx=0;exitDy=0;entryX=0.5;entryY=1;entryDx=0;entryDy=0;labelBackgroundColor=none;fontColor=default;fontStyle=1" parent="1" source="TousfeBBo66vvZQj1fM5-51" target="TousfeBBo66vvZQj1fM5-53" edge="1">
          <mxGeometry width="50" height="50" relative="1" as="geometry">
            <mxPoint x="5713.25" y="204.67999999999984" as="sourcePoint" />
            <mxPoint x="5763.25" y="154.67999999999984" as="targetPoint" />
          </mxGeometry>
        </mxCell>
        <mxCell id="TousfeBBo66vvZQj1fM5-58" value="Sim" style="text;html=1;align=center;verticalAlign=middle;resizable=0;points=[];autosize=1;strokeColor=none;fillColor=none;rounded=0;labelBackgroundColor=none;fontStyle=1" parent="1" vertex="1">
          <mxGeometry x="5558.25" y="67.17000000000007" width="40" height="30" as="geometry" />
        </mxCell>
        <mxCell id="TousfeBBo66vvZQj1fM5-60" value="Não" style="text;html=1;align=center;verticalAlign=middle;resizable=0;points=[];autosize=1;strokeColor=none;fillColor=none;rounded=0;labelBackgroundColor=none;fontStyle=1" parent="1" vertex="1">
          <mxGeometry x="5432.25" y="67.17000000000007" width="50" height="30" as="geometry" />
        </mxCell>
        <mxCell id="TousfeBBo66vvZQj1fM5-61" value="Remover linha(ID) de UserData.txt" style="rounded=0;whiteSpace=wrap;html=1;labelBackgroundColor=none;fontStyle=1" parent="1" vertex="1">
          <mxGeometry x="5612.25" y="67.17000000000007" width="120" height="60" as="geometry" />
        </mxCell>
        <mxCell id="TousfeBBo66vvZQj1fM5-62" value="Salvar UserData.txt" style="rounded=0;whiteSpace=wrap;html=1;labelBackgroundColor=none;fontStyle=1" parent="1" vertex="1">
          <mxGeometry x="5763.75" y="67.17000000000007" width="120" height="60" as="geometry" />
        </mxCell>
        <mxCell id="TousfeBBo66vvZQj1fM5-63" value="" style="endArrow=classic;html=1;rounded=0;exitX=1;exitY=0.5;exitDx=0;exitDy=0;entryX=0;entryY=0.5;entryDx=0;entryDy=0;labelBackgroundColor=none;fontColor=default;fontStyle=1" parent="1" source="TousfeBBo66vvZQj1fM5-61" target="TousfeBBo66vvZQj1fM5-62" edge="1">
          <mxGeometry width="50" height="50" relative="1" as="geometry">
            <mxPoint x="5663.25" y="204.67999999999984" as="sourcePoint" />
            <mxPoint x="5713.25" y="154.67999999999984" as="targetPoint" />
          </mxGeometry>
        </mxCell>
        <mxCell id="TousfeBBo66vvZQj1fM5-64" value="Fim&lt;div&gt;remove_user()&lt;/div&gt;" style="ellipse;whiteSpace=wrap;html=1;rounded=0;labelBackgroundColor=none;fontStyle=1" parent="1" vertex="1">
          <mxGeometry x="5952.75" y="57.17000000000007" width="120" height="80" as="geometry" />
        </mxCell>
        <mxCell id="TousfeBBo66vvZQj1fM5-67" value="" style="endArrow=classic;html=1;rounded=0;exitX=1;exitY=0.5;exitDx=0;exitDy=0;entryX=0;entryY=0.5;entryDx=0;entryDy=0;labelBackgroundColor=none;fontColor=default;fontStyle=1" parent="1" source="TousfeBBo66vvZQj1fM5-62" target="TousfeBBo66vvZQj1fM5-64" edge="1">
          <mxGeometry width="50" height="50" relative="1" as="geometry">
            <mxPoint x="5853.25" y="64.67999999999984" as="sourcePoint" />
            <mxPoint x="5913.25" y="97.17000000000007" as="targetPoint" />
          </mxGeometry>
        </mxCell>
        <mxCell id="TousfeBBo66vvZQj1fM5-70" value="" style="endArrow=classic;html=1;rounded=0;exitX=0.5;exitY=1;exitDx=0;exitDy=0;labelBackgroundColor=none;fontColor=default;fontStyle=1" parent="1" source="mepEjF3Km3tL2axybcSp-611" edge="1">
          <mxGeometry width="50" height="50" relative="1" as="geometry">
            <mxPoint x="7803.16" y="-1475.32" as="sourcePoint" />
            <mxPoint x="7293" y="-1290" as="targetPoint" />
          </mxGeometry>
        </mxCell>
        <mxCell id="TousfeBBo66vvZQj1fM5-71" value="" style="endArrow=classic;html=1;rounded=0;exitX=0.5;exitY=1;exitDx=0;exitDy=0;labelBackgroundColor=none;fontColor=default;fontStyle=1" parent="1" edge="1">
          <mxGeometry width="50" height="50" relative="1" as="geometry">
            <mxPoint x="7431.619999999999" y="-1385.32" as="sourcePoint" />
            <mxPoint x="7432" y="-1290" as="targetPoint" />
          </mxGeometry>
        </mxCell>
        <mxCell id="TousfeBBo66vvZQj1fM5-72" value="" style="endArrow=classic;html=1;rounded=0;exitX=0.5;exitY=1;exitDx=0;exitDy=0;labelBackgroundColor=none;fontColor=default;fontStyle=1" parent="1" edge="1">
          <mxGeometry width="50" height="50" relative="1" as="geometry">
            <mxPoint x="7568.110000000001" y="-1385.32" as="sourcePoint" />
            <mxPoint x="7568" y="-1290" as="targetPoint" />
          </mxGeometry>
        </mxCell>
        <mxCell id="TousfeBBo66vvZQj1fM5-73" value="" style="endArrow=classic;html=1;rounded=0;exitX=0.5;exitY=1;exitDx=0;exitDy=0;labelBackgroundColor=none;fontColor=default;fontStyle=1" parent="1" edge="1">
          <mxGeometry width="50" height="50" relative="1" as="geometry">
            <mxPoint x="7702.610000000001" y="-1385.32" as="sourcePoint" />
            <mxPoint x="7703" y="-1290" as="targetPoint" />
          </mxGeometry>
        </mxCell>
        <mxCell id="TousfeBBo66vvZQj1fM5-75" value="Fim&lt;div&gt;transfer()&lt;/div&gt;" style="ellipse;whiteSpace=wrap;html=1;rounded=0;labelBackgroundColor=none;fontStyle=1" parent="1" vertex="1">
          <mxGeometry x="7044.29" y="1638.29" width="120" height="80" as="geometry" />
        </mxCell>
        <mxCell id="TousfeBBo66vvZQj1fM5-77" value="Fim&lt;div&gt;new_user()&lt;/div&gt;" style="ellipse;whiteSpace=wrap;html=1;rounded=0;labelBackgroundColor=none;fontStyle=1" parent="1" vertex="1">
          <mxGeometry x="6831.33" y="-983.31" width="100" height="48.43" as="geometry" />
        </mxCell>
        <mxCell id="TousfeBBo66vvZQj1fM5-81" value="menu()" style="rounded=0;whiteSpace=wrap;html=1;labelBackgroundColor=none;fontStyle=1" parent="1" vertex="1">
          <mxGeometry x="5404" y="-1765.32" width="120" height="60" as="geometry" />
        </mxCell>
        <mxCell id="TousfeBBo66vvZQj1fM5-83" value="Fim" style="ellipse;whiteSpace=wrap;html=1;rounded=0;labelBackgroundColor=none;fontStyle=1" parent="1" vertex="1">
          <mxGeometry x="5404" y="-1675.3200000000002" width="120" height="80" as="geometry" />
        </mxCell>
        <mxCell id="TousfeBBo66vvZQj1fM5-84" value="" style="endArrow=classic;html=1;rounded=0;exitX=0.5;exitY=1;exitDx=0;exitDy=0;entryX=0.5;entryY=0;entryDx=0;entryDy=0;labelBackgroundColor=none;fontColor=default;fontStyle=1" parent="1" source="TousfeBBo66vvZQj1fM5-81" target="TousfeBBo66vvZQj1fM5-83" edge="1">
          <mxGeometry width="50" height="50" relative="1" as="geometry">
            <mxPoint x="5770" y="-1484.68" as="sourcePoint" />
            <mxPoint x="5820" y="-1534.68" as="targetPoint" />
          </mxGeometry>
        </mxCell>
        <mxCell id="Tq2M9Iyucr7lJhH_iC7z-45" value="SIM" style="text;strokeColor=none;align=center;fillColor=none;html=1;verticalAlign=middle;whiteSpace=wrap;rounded=0;labelBackgroundColor=none;fontStyle=1" parent="1" vertex="1">
          <mxGeometry x="6532.63" y="888.29" width="60" height="30" as="geometry" />
        </mxCell>
        <mxCell id="Tq2M9Iyucr7lJhH_iC7z-46" value="NÃO" style="text;strokeColor=none;align=center;fillColor=none;html=1;verticalAlign=middle;whiteSpace=wrap;rounded=0;labelBackgroundColor=none;fontStyle=1" parent="1" vertex="1">
          <mxGeometry x="6378.99" y="888.29" width="60" height="30" as="geometry" />
        </mxCell>
        <mxCell id="Tq2M9Iyucr7lJhH_iC7z-52" value="&lt;font style=&quot;font-size: 48px;&quot;&gt;FUNÇÃO MENU&lt;/font&gt;" style="text;strokeColor=none;align=center;fillColor=none;html=1;verticalAlign=middle;whiteSpace=wrap;rounded=0;labelBackgroundColor=none;fontStyle=1" parent="1" vertex="1">
          <mxGeometry x="5980" y="-1625.32" width="420" height="30" as="geometry" />
        </mxCell>
        <mxCell id="Tq2M9Iyucr7lJhH_iC7z-55" value="&lt;font style=&quot;font-size: 48px;&quot;&gt;FUNÇÃO MAIN&lt;/font&gt;" style="text;strokeColor=none;align=center;fillColor=none;html=1;verticalAlign=middle;whiteSpace=wrap;rounded=0;labelBackgroundColor=none;fontStyle=1" parent="1" vertex="1">
          <mxGeometry x="5192.25" y="-2030" width="420" height="30" as="geometry" />
        </mxCell>
        <mxCell id="Tq2M9Iyucr7lJhH_iC7z-56" value="&lt;font style=&quot;font-size: 48px;&quot;&gt;FUNÇÃO ADICIONAR MÚLTIPLOS USUÁRIOS&lt;/font&gt;" style="text;strokeColor=none;align=center;fillColor=none;html=1;verticalAlign=middle;whiteSpace=wrap;rounded=0;labelBackgroundColor=none;fontStyle=1" parent="1" vertex="1">
          <mxGeometry x="5306.25" y="-1153.3200000000002" width="607" height="30" as="geometry" />
        </mxCell>
        <mxCell id="Tq2M9Iyucr7lJhH_iC7z-57" value="&lt;span style=&quot;font-size: 48px;&quot;&gt;FUNÇÃO VALIDAÇÃO&lt;/span&gt;" style="text;strokeColor=none;align=center;fillColor=none;html=1;verticalAlign=middle;whiteSpace=wrap;rounded=0;labelBackgroundColor=none;fontStyle=1" parent="1" vertex="1">
          <mxGeometry x="5116.25" y="-577.8200000000002" width="607" height="30" as="geometry" />
        </mxCell>
        <mxCell id="Tq2M9Iyucr7lJhH_iC7z-58" value="&lt;span style=&quot;font-size: 48px;&quot;&gt;FUNÇÃO REMOVER USUÁRIO&lt;/span&gt;" style="text;strokeColor=none;align=center;fillColor=none;html=1;verticalAlign=middle;whiteSpace=wrap;rounded=0;labelBackgroundColor=none;fontStyle=1" parent="1" vertex="1">
          <mxGeometry x="5223.12" y="-80" width="810.13" height="30" as="geometry" />
        </mxCell>
        <mxCell id="Tq2M9Iyucr7lJhH_iC7z-60" value="&lt;span style=&quot;font-size: 48px;&quot;&gt;FUNÇÃO ENCONTRAR USUÁRIO&lt;/span&gt;" style="text;strokeColor=none;align=center;fillColor=none;html=1;verticalAlign=middle;whiteSpace=wrap;rounded=0;labelBackgroundColor=none;fontStyle=1" parent="1" vertex="1">
          <mxGeometry x="6496.41" y="-130.00000000000003" width="810.13" height="30" as="geometry" />
        </mxCell>
        <mxCell id="Tq2M9Iyucr7lJhH_iC7z-61" value="" style="endArrow=classic;html=1;rounded=0;exitX=0.5;exitY=0;exitDx=0;exitDy=0;entryX=0.5;entryY=1;entryDx=0;entryDy=0;labelBackgroundColor=none;fontColor=default;fontStyle=1" parent="1" source="mepEjF3Km3tL2axybcSp-325" target="mepEjF3Km3tL2axybcSp-709" edge="1">
          <mxGeometry width="50" height="50" relative="1" as="geometry">
            <mxPoint x="6646.83" y="-760" as="sourcePoint" />
            <mxPoint x="6646.83" y="-862.9799999999998" as="targetPoint" />
          </mxGeometry>
        </mxCell>
        <mxCell id="Tq2M9Iyucr7lJhH_iC7z-120" value="" style="edgeStyle=orthogonalEdgeStyle;rounded=0;orthogonalLoop=1;jettySize=auto;html=1;fontStyle=1" parent="1" source="mepEjF3Km3tL2axybcSp-709" target="mepEjF3Km3tL2axybcSp-710" edge="1">
          <mxGeometry relative="1" as="geometry" />
        </mxCell>
        <mxCell id="mepEjF3Km3tL2axybcSp-709" value="&lt;span&gt;validation()&lt;/span&gt;" style="rounded=0;whiteSpace=wrap;html=1;labelBackgroundColor=none;fontStyle=1" parent="1" vertex="1">
          <mxGeometry x="6542.83" y="-793.32" width="85" height="36.68" as="geometry" />
        </mxCell>
        <mxCell id="Tq2M9Iyucr7lJhH_iC7z-136" value="&lt;font style=&quot;font-size: 48px;&quot;&gt;FUNÇÃO OPERATIONS&lt;/font&gt;" style="text;strokeColor=none;align=center;fillColor=none;html=1;verticalAlign=middle;whiteSpace=wrap;rounded=0;labelBackgroundColor=none;fontStyle=1" parent="1" vertex="1">
          <mxGeometry x="7272.16" y="-1755" width="420" height="30" as="geometry" />
        </mxCell>
        <mxCell id="Tq2M9Iyucr7lJhH_iC7z-172" value="&lt;span style=&quot;font-size: 48px;&quot;&gt;FUNÇÃO ADICIONAR USUARIO&lt;/span&gt;" style="text;strokeColor=none;align=center;fillColor=none;html=1;verticalAlign=middle;whiteSpace=wrap;rounded=0;labelBackgroundColor=none;fontStyle=1" parent="1" vertex="1">
          <mxGeometry x="6751.700000000001" y="-1080" width="810.13" height="30" as="geometry" />
        </mxCell>
        <mxCell id="Tq2M9Iyucr7lJhH_iC7z-184" value="&lt;span style=&quot;font-size: 48px;&quot;&gt;FUNÇÃO TRANSFERIR SALDO&lt;/span&gt;" style="text;strokeColor=none;align=center;fillColor=none;html=1;verticalAlign=middle;whiteSpace=wrap;rounded=0;labelBackgroundColor=none;fontStyle=1" parent="1" vertex="1">
          <mxGeometry x="5468.75" y="830" width="936.88" height="30" as="geometry" />
        </mxCell>
        <mxCell id="ty1z_cMRj-_MPsmsl8Fz-6" value="&lt;span&gt;Não&lt;/span&gt;" style="text;html=1;align=center;verticalAlign=middle;resizable=0;points=[];autosize=1;strokeColor=none;fillColor=none;rounded=0;labelBackgroundColor=none;fontStyle=1" parent="1" vertex="1">
          <mxGeometry x="5456.25" y="-382.34000000000015" width="50" height="30" as="geometry" />
        </mxCell>
        <mxCell id="ty1z_cMRj-_MPsmsl8Fz-7" value="&lt;span&gt;Sim&lt;/span&gt;" style="text;html=1;align=center;verticalAlign=middle;resizable=0;points=[];autosize=1;strokeColor=none;fillColor=none;rounded=0;labelBackgroundColor=none;fontStyle=1" parent="1" vertex="1">
          <mxGeometry x="5339.75" y="-382.34000000000015" width="40" height="30" as="geometry" />
        </mxCell>
        <mxCell id="6LVZ_zRKDeRPgd0BCO9k-2" value="" style="endArrow=classic;html=1;rounded=0;exitX=0.5;exitY=0;exitDx=0;exitDy=0;" edge="1" parent="1" source="mepEjF3Km3tL2axybcSp-426">
          <mxGeometry width="50" height="50" relative="1" as="geometry">
            <mxPoint x="7060" y="120" as="sourcePoint" />
            <mxPoint x="7181" y="40" as="targetPoint" />
          </mxGeometry>
        </mxCell>
        <mxCell id="6LVZ_zRKDeRPgd0BCO9k-4" value="" style="endArrow=classic;html=1;rounded=0;exitX=1;exitY=0.5;exitDx=0;exitDy=0;entryX=0;entryY=0.5;entryDx=0;entryDy=0;" edge="1" parent="1" source="mepEjF3Km3tL2axybcSp-604" target="mepEjF3Km3tL2axybcSp-660">
          <mxGeometry width="50" height="50" relative="1" as="geometry">
            <mxPoint x="7390" y="-1370" as="sourcePoint" />
            <mxPoint x="7440" y="-1420" as="targetPoint" />
          </mxGeometry>
        </mxCell>
        <mxCell id="6LVZ_zRKDeRPgd0BCO9k-6" value="" style="endArrow=classic;html=1;rounded=0;exitX=1;exitY=0.5;exitDx=0;exitDy=0;entryX=0;entryY=0.5;entryDx=0;entryDy=0;" edge="1" parent="1" source="mepEjF3Km3tL2axybcSp-660" target="mepEjF3Km3tL2axybcSp-682">
          <mxGeometry width="50" height="50" relative="1" as="geometry">
            <mxPoint x="7880" y="-1370" as="sourcePoint" />
            <mxPoint x="7930" y="-1420" as="targetPoint" />
          </mxGeometry>
        </mxCell>
        <mxCell id="6LVZ_zRKDeRPgd0BCO9k-7" value="" style="endArrow=classic;html=1;rounded=0;exitX=0;exitY=0.5;exitDx=0;exitDy=0;" edge="1" parent="1" source="mepEjF3Km3tL2axybcSp-722">
          <mxGeometry width="50" height="50" relative="1" as="geometry">
            <mxPoint x="6810" y="-900" as="sourcePoint" />
            <mxPoint x="7060" y="-880" as="targetPoint" />
            <Array as="points">
              <mxPoint x="7060" y="-766" />
            </Array>
          </mxGeometry>
        </mxCell>
        <mxCell id="6LVZ_zRKDeRPgd0BCO9k-8" value="" style="endArrow=classic;html=1;rounded=0;exitX=1;exitY=0.5;exitDx=0;exitDy=0;" edge="1" parent="1" source="mepEjF3Km3tL2axybcSp-710">
          <mxGeometry width="50" height="50" relative="1" as="geometry">
            <mxPoint x="6830" y="-870" as="sourcePoint" />
            <mxPoint x="6880" y="-880" as="targetPoint" />
          </mxGeometry>
        </mxCell>
      </root>
    </mxGraphModel>
  </diagram>
</mxfile>
